<?xml version="1.0" encoding="UTF-8" standalone="no"?><!DOCTYPE svg PUBLIC "-//W3C//DTD SVG 1.1//EN" "http://www.w3.org/Graphics/SVG/1.1/DTD/svg11.dtd"><svg width="100%" height="100%" viewBox="0 0 1240 1340" version="1.1" xmlns="http://www.w3.org/2000/svg" xmlns:xlink="http://www.w3.org/1999/xlink" xml:space="preserve" xmlns:serif="http://www.serif.com/" style="fill-rule:evenodd;clip-rule:evenodd;stroke-linecap:round;stroke-linejoin:round;stroke-miterlimit:1.5;"><rect id="Artboard1" x="0" y="0" width="1240" height="1340" style="fill:none;"/><path d="M340,170c0,-11.038 -8.962,-20 -20,-20l-220,0c-11.038,0 -20,8.962 -20,20l0,540c0,11.038 8.962,20 20,20l220,0c11.038,0 20,-8.962 20,-20l0,-540Z" style="fill:#dcebf2;"/><path d="M1200,555c0,-11.038 -8.962,-20 -20,-20l-220,0c-11.038,0 -20,8.962 -20,20l0,175c0,11.038 8.962,20 20,20l220,0c11.038,0 20,-8.962 20,-20l0,-175Z" style="fill:#d9d3f9;"/><path d="M1200,790c0,-11.038 -8.962,-20 -20,-20l-220,0c-11.038,0 -20,8.962 -20,20l0,140c0,11.038 8.962,20 20,20l220,0c11.038,0 20,-8.962 20,-20l0,-140Z" style="fill:#d9d3f9;"/><path d="M340,782.969c0,-11.038 -8.962,-20 -20,-20l-220,0c-11.038,0 -20,8.962 -20,20l0,147.031c0,11.038 8.962,20 20,20l220,0c11.038,0 20,-8.962 20,-20l0,-147.031Z" style="fill:#dcebf2;"/><path d="M263.469,690l656.531,0l0,-124l30.577,0" style="fill:none;stroke:url(#_Linear1);stroke-width:7px;"/><path d="M1200,1010c0,-11.038 -8.962,-20 -20,-20l-1080,0c-11.038,0 -20,8.962 -20,20l0,130c0,11.038 8.962,20 20,20l1080,0c11.038,0 20,-8.962 20,-20l0,-130Z" style="fill:#efffd9;"/><path d="M630,1200c0,-11.038 -8.962,-20 -20,-20l-510,0c-11.038,0 -20,8.962 -20,20l0,80c0,11.038 8.962,20 20,20l510,0c11.038,0 20,-8.962 20,-20l0,-80Z" style="fill:#efffd9;"/><path d="M1200,1200c0,-11.038 -8.962,-20 -20,-20l-510,0c-11.038,0 -20,8.962 -20,20l0,80c0,11.038 8.962,20 20,20l510,0c11.038,0 20,-8.962 20,-20l0,-80Z" style="fill:#efffd9;"/><path d="M1200,170c0,-11.038 -8.962,-20 -20,-20l-220,0c-11.038,0 -20,8.962 -20,20l0,325c0,11.038 8.962,20 20,20l220,0c11.038,0 20,-8.962 20,-20l0,-325Z" style="fill:#d9d3f9;"/><path d="M900,170c0,-11.038 -8.962,-20 -20,-20l-480,0c-11.038,0 -20,8.962 -20,20l0,210c0,11.038 8.962,20 20,20l480,0c11.038,0 20,-8.962 20,-20l0,-210Z" style="fill:#ffe5f2;"/><path d="M900,460c0,-11.038 -8.962,-20 -20,-20l-480,0c-11.038,0 -20,8.962 -20,20l0,190c0,11.038 8.962,20 20,20l480,0c11.038,0 20,-8.962 20,-20l0,-190Z" style="fill:#ffe5f2;"/><path d="M900,730c0,-11.038 -8.962,-20 -20,-20l-480,0c-11.038,0 -20,8.962 -20,20l0,200c0,11.038 8.962,20 20,20l480,0c11.038,0 20,-8.962 20,-20l0,-200Z" style="fill:#ffe5f2;"/><text x="121.84px" y="132.737px" style="font-family:'Roboto-Bold', 'Roboto';font-weight:700;font-size:48px;fill:#5498b9;">SER<tspan x="208.535px " y="132.737px ">V</tspan>ER</text><text x="404.523px" y="132.737px" style="font-family:'Roboto-Bold', 'Roboto';font-weight:700;font-size:48px;fill:#ff4ca0;">SH<tspan x="468.367px " y="132.737px ">A</tspan>RED ser<tspan x="670px 693.953px " y="132.737px 132.737px ">ve</tspan>r/client</text><text x="988.824px" y="132.737px" style="font-family:'Roboto-Bold', 'Roboto';font-weight:700;font-size:48px;fill:#7e6ed6;">CLIEN<tspan x="1120.43px " y="132.737px ">T</tspan></text><text x="466.753px" y="197.578px" style="font-family:'Roboto-Bold', 'Roboto';font-weight:700;font-size:48px;fill:#445;">REA<tspan x="556.191px 586.917px 610.238px " y="197.578px 197.578px 197.578px ">CT-</tspan>ROUTER</text><text x="37.121px" y="62.911px" style="font-family:'Roboto-Light', 'Roboto';font-weight:300;font-size:48px;fill:#445;">ISOMORPHIC WEB APPLICA<tspan x="631.121px " y="62.911px ">T</tspan>ION with REA<tspan x="938.668px 969.16px 996.887px " y="62.911px 62.911px 62.911px ">CT </tspan>&amp; REDUX</text><text x="563.433px" y="493.122px" style="font-family:'Roboto-Bold', 'Roboto';font-weight:700;font-size:48px;fill:#445;">REDUX</text><path d="M153.642,793.992l0,-43.984l251.781,0l0,-13.008l35,35l-35,35l0,-13.008l-251.781,0Z" style="fill:url(#_Linear2);"/><path d="M160.836,193.992l0,-43.984l251.781,0l0,-13.008l35,35l-35,35l0,-13.008l-251.781,0Z" style="fill:url(#_Linear3);"/><path d="M153.642,542.219l0,-43.983l251.781,0l0,-13.009l35,35l-35,35l0,-13.008l-251.781,0Z" style="fill:url(#_Linear4);"/><path d="M1125.36,874.428l0,-43.983l-251.781,0l0,-13.008l-35,35l35,35l0,-13.009l251.781,0Z" style="fill:url(#_Linear5);"/><path d="M1161.67,496.098l0,-51.011l-251.781,0l0,-15.087l-35,40.593l35,40.592l0,-15.087l251.781,0Z" style="fill:url(#_Linear6);"/><path d="M1161.67,338.122l0,-51.011l-251.781,0l0,-15.087l-35,40.593l35,40.592l0,-15.087l251.781,0Z" style="fill:url(#_Linear7);"/><path d="M380.423,237.992l0,-43.984l-127.806,0l0,-13.008l-35,35l35,35l0,-13.008l127.806,0Z" style="fill:url(#_Linear8);"/><path d="M380.423,586.23l0,-43.983l-127.806,0l0,-13.008l-35,35l35,35l0,-13.009l127.806,0Z" style="fill:url(#_Linear9);"/><path d="M495.159,368.476l-43.983,0l0,58.048l-13.008,0l35,35l35,-35l-13.009,0l0,-58.048Z" style="fill:url(#_Linear10);"/><path d="M794.008,1021.33l43.984,0l0,-58.049l13.008,0l-35,-35l-35,35l13.008,0l0,58.049Z" style="fill:url(#_Linear11);"/><path d="M495.159,641.941l-43.983,0l0,58.049l-13.008,0l35,35l35,-35l-13.009,0l0,-58.049Z" style="fill:url(#_Linear12);"/><path d="M794.008,738.3l43.984,0l0,-58.049l13.008,0l-35,-35l-35,35l13.008,0l0,58.049Z" style="fill:url(#_Linear13);"/><path d="M837.992,368.476l-43.984,0l0,58.048l-13.008,0l35,35l35,-35l-13.008,0l0,-58.048Z" style="fill:url(#_Linear14);"/><path d="M451.176,916.917l43.983,0l0,58.049l13.009,0l-35,35l-35,-35l13.008,0l0,-58.049Z" style="fill:url(#_Linear15);"/><path d="M380.423,838.062l0,-43.983l-127.806,0l0,-13.009l-35,35l35,35l0,-13.008l127.806,0Z" style="fill:url(#_Linear16);"/><path d="M899.749,932.241l0,-43.983l127.806,0l0,-13.008l35,35l-35,35l0,-13.009l-127.806,0Z" style="fill:url(#_Linear17);"/><text x="236.341px" y="178.859px" style="font-family:'ArialMT', 'Arial', sans-serif;font-size:16px;">TRANSFER <tspan x="326.724px 336.208px 348.654px " y="178.859px 178.859px 178.859px ">TO </tspan>ROUTER</text><text x="228.954px" y="524.433px" style="font-family:'ArialMT', 'Arial', sans-serif;font-size:16px;">CALL<tspan x="268.384px 271.946px 282.618px 291.517px 299.821px 304.267px " y="524.433px 524.433px 524.433px 524.433px 524.433px 524.433px "> ALL F</tspan>etchDatas</text><text x="228.954px" y="778.275px" style="font-family:'ArialMT', 'Arial', sans-serif;font-size:16px;">PROXY<tspan x="284.681px 288.837px 298.61px " y="778.275px 778.275px 778.275px "> TH</tspan>E ROUTE</text><text x="255.505px" y="221.873px" style="font-family:'ArialMT', 'Arial', sans-serif;font-size:16px;">COMPONENTS</text><text x="251.137px" y="569.517px" style="font-family:'ArialMT', 'Arial', sans-serif;font-size:16px;">UPDA<tspan x="294.403px 304.176px " y="569.517px 569.517px ">TE</tspan>D ST<tspan x="351.004px 363.45px " y="569.517px 569.517px ">OR</tspan>E</text><text x="288.935px" y="823.273px" style="font-family:'ArialMT', 'Arial', sans-serif;font-size:16px;">API DA<tspan x="340.209px 348.795px 359.467px " y="823.273px 823.273px 823.273px ">TAS</tspan></text><g transform="matrix(6.12323e-17,-1,1,6.12323e-17,-277.588,1157.32)"><text x="441.575px" y="756.589px" style="font-family:'ArialMT', 'Arial', sans-serif;font-size:16px;">QUER<tspan x="487.512px " y="756.589px ">Y</tspan></text></g><g transform="matrix(6.12323e-17,-1,1,6.12323e-17,-11.2613,890.997)"><text x="441.575px" y="490.263px" style="font-family:'ArialMT', 'Arial', sans-serif;font-size:16px;">ACTIONS</text></g><g transform="matrix(6.12323e-17,-1,1,6.12323e-17,331.204,1233.46)"><text x="784.04px" y="490.263px" style="font-family:'ArialMT', 'Arial', sans-serif;font-size:16px;">ACTIONS</text></g><g transform="matrix(6.12323e-17,-1,1,6.12323e-17,34.4658,1530.03)"><text x="783.956px" y="786.917px" style="font-family:'ArialMT', 'Arial', sans-serif;font-size:16px;">API DA<tspan x="835.23px 843.816px 854.487px " y="786.917px 786.917px 786.917px ">TAS</tspan></text></g><text x="862.996px" y="917.453px" style="font-family:'ArialMT', 'Arial', sans-serif;font-size:16px;">SET<tspan x="893.824px 898.27px " y="917.453px 917.453px "> c</tspan>ookie with JWT</text><text x="904.129px" y="859.64px" style="font-family:'ArialMT', 'Arial', sans-serif;font-size:16px;">get JWT<tspan x="963.402px 967.847px " y="859.64px 859.64px "> f</tspan>rom cookie inside iso-fetch</text><path d="M630,1060.04c0,-5.539 -4.496,-10.035 -10.035,-10.035l-509.93,0c-5.539,0 -10.035,4.496 -10.035,10.035l0,69.93c0,5.539 4.496,10.035 10.035,10.035l509.93,0c5.539,0 10.035,-4.496 10.035,-10.035l0,-69.93Z" style="fill:#b3db8f;fill-opacity:0.356863;"/><path d="M1180,1060.04c0,-5.539 -4.496,-10.035 -10.035,-10.035l-509.93,0c-5.539,0 -10.035,4.496 -10.035,10.035l0,69.93c0,5.539 4.496,10.035 10.035,10.035l509.93,0c5.539,0 10.035,-4.496 10.035,-10.035l0,-69.93Z" style="fill:#b3db8f;fill-opacity:0.356863;"/><text x="877.295px" y="1086.57px" style="font-family:'Roboto-Bold', 'Roboto';font-weight:700;font-size:30px;fill:#445;">Login</text><text x="969.043px" y="576.848px" style="font-family:'Roboto-Bold', 'Roboto';font-weight:700;font-size:30px;fill:#445;">FIRST<tspan x="1049.49px " y="576.848px "> </tspan>RENDER</text><text x="969.373px" y="814.606px" style="font-family:'Roboto-Bold', 'Roboto';font-weight:700;font-size:30px;fill:#445;">CLIEN<tspan x="1051.62px 1069.3px " y="814.606px 814.606px ">T </tspan>FE<tspan x="1110.38px 1128.53px " y="814.606px 814.606px ">TC</tspan>H</text><text x="793.785px" y="311.446px" style="font-family:'Roboto-Bold', 'Roboto';font-weight:700;font-size:24px;fill:#7e6ed6;">CLIEN<tspan x="859.586px " y="311.446px ">T</tspan></text><text x="333.865px" y="1086.94px" style="font-family:'Roboto-Bold', 'Roboto';font-weight:700;font-size:30px;fill:#445;">A<tspan x="353.889px " y="1086.94px ">u</tspan>th</text><g transform="matrix(1,0,0,1,32.9506,-160.545)"><text x="427px" y="393.326px" style="font-family:'ArialMT', 'Arial', sans-serif;font-size:20px;">• get all components to render on this route</text><text x="427px" y="417.326px" style="font-family:'ArialMT', 'Arial', sans-serif;font-size:20px;">• each</text><text x="488.484px" y="417.326px" style="font-family:'Menlo-Bold', 'Menlo', monospace;font-weight:700;font-size:20px;">page component</text><text x="662.615px" y="417.326px" style="font-family:'ArialMT', 'Arial', sans-serif;font-size:20px;">has some</text><text x="754.881px" y="417.326px" style="font-family:'Menlo-Bold', 'Menlo', monospace;font-weight:700;font-size:20px;">redux</text><text x="439px" y="441.326px" style="font-family:'Menlo-Bold', 'Menlo', monospace;font-weight:700;font-size:20px;">actions</text><text x="528.844px" y="441.326px" style="font-family:'ArialMT', 'Arial', sans-serif;font-size:20px;">to fetch the necessary datas</text></g><g transform="matrix(1,0,0,1,-28.9891,359.147)"><text x="983.315px" y="-51.571px" style="font-family:'ArialMT', 'Arial', sans-serif;font-size:20px;">• On route change refer</text><text x="995.315px" y="-27.571px" style="font-family:'ArialMT', 'Arial', sans-serif;font-size:20px;">to REACT<tspan x="1084.23px 1090.89px " y="-27.571px -27.571px ">-R</tspan>OUTER</text></g><g transform="matrix(1,0,0,1,-28.9891,515.979)"><text x="983.315px" y="-51.571px" style="font-family:'ArialMT', 'Arial', sans-serif;font-size:20px;">• On user action call the</text><text x="995.315px" y="-27.571px" style="font-family:'ArialMT', 'Arial', sans-serif;font-size:20px;">right</text><text x="1039.78px" y="-27.571px" style="font-family:'Menlo-Bold', 'Menlo', monospace;font-weight:700;font-size:20px;">redux actions</text></g><path d="M841.953,1078.62c-25.402,-7.012 -25.765,-34.683 -25.953,-95.402" style="fill:none;stroke:#8eb4ff;stroke-width:3px;"/><g transform="matrix(1,0,0,1,26.1731,-66.3689)"><text x="76px" y="696.326px" style="font-family:'ArialMT', 'Arial', sans-serif;font-size:20px;">• render all components</text><text x="88px" y="720.326px" style="font-family:'ArialMT', 'Arial', sans-serif;font-size:20px;">with the redux ST<tspan x="243.264px 258.82px " y="720.326px 720.326px ">OR</tspan>E</text><text x="76px" y="744.326px" style="font-family:'ArialMT', 'Arial', sans-serif;font-size:20px;">• pass HTML<tspan x="190.063px 195.619px " y="744.326px 744.326px ">  </tspan>&amp; ST<tspan x="245.268px 260.824px " y="744.326px 744.326px ">OR</tspan>E</text><text x="88px" y="768.326px" style="font-family:'ArialMT', 'Arial', sans-serif;font-size:20px;">to the client</text></g><g transform="matrix(1,0,0,1,26.1731,166.735)"><text x="76px" y="696.326px" style="font-family:'ArialMT', 'Arial', sans-serif;font-size:20px;">• support CLIENT<tspan x="231.586px 237.143px " y="696.326px 696.326px "> w</tspan>ithout</text><text x="88px" y="720.326px" style="font-family:'ArialMT', 'Arial', sans-serif;font-size:20px;">JS enabled (optional)</text><text x="76px" y="744.326px" style="font-family:'ArialMT', 'Arial', sans-serif;font-size:20px;">• redirect to the</text><text x="88px" y="768.326px" style="font-family:'ArialMT', 'Arial', sans-serif;font-size:20px;">appropriate route</text></g><path d="M963.584,566.184l-18,15l0,-30l18,15Z" style="fill:#b5ace7;"/><path d="M1166.22,183.008l18,-15l0,30l-18,-15Z" style="fill:#b5ace7;"/><text x="402.941px" y="311.446px" style="font-family:'Roboto-Bold', 'Roboto';font-weight:700;font-size:24px;fill:#5498b9;">SER<tspan x="446.288px " y="311.446px ">V</tspan>ER</text><g transform="matrix(1,0,0,1,-23.2507,-55.4251)"><text x="427px" y="394.195px" style="font-family:'Menlo-Bold', 'Menlo', monospace;font-weight:700;font-size:20px;">redux actions</text><text x="589.09px" y="394.195px" style="font-family:'ArialMT', 'Arial', sans-serif;font-size:20px;">in</text><text x="427px" y="418.195px" style="font-family:'Menlo-Bold', 'Menlo', monospace;font-weight:700;font-size:20px;">fetchDatas</text><text x="552.967px" y="418.195px" style="font-family:'ArialMT', 'Arial', sans-serif;font-size:20px;">static method</text></g><g transform="matrix(1,0,0,1,210.164,-55.4251)"><text x="486.133px" y="394.195px" style="font-family:'Menlo-Bold', 'Menlo', monospace;font-weight:700;font-size:20px;">redux actions</text><text x="648.223px" y="394.195px" style="font-family:'ArialMT', 'Arial', sans-serif;font-size:20px;">in</text><text x="459.092px" y="418.195px" style="font-family:'Menlo-Bold', 'Menlo', monospace;font-weight:700;font-size:20px;">componentDidMount</text></g><g transform="matrix(1,0,0,1,32.9506,126.555)"><text x="427px" y="393.326px" style="font-family:'ArialMT', 'Arial', sans-serif;font-size:20px;">• maintain the state of the app (datas)</text><text x="427px" y="417.326px" style="font-family:'ArialMT', 'Arial', sans-serif;font-size:20px;">• need a ST<tspan x="531.482px 547.039px " y="417.326px 417.326px ">OR</tspan>E (provided by either the client</text><text x="439px" y="441.326px" style="font-family:'ArialMT', 'Arial', sans-serif;font-size:20px;">or the server)</text><text x="427px" y="465.326px" style="font-family:'ArialMT', 'Arial', sans-serif;font-size:20px;">•</text><text x="439.559px" y="465.326px" style="font-family:'Menlo-Bold', 'Menlo', monospace;font-weight:700;font-size:20px;">redux actions</text><text x="601.648px" y="465.326px" style="font-family:'ArialMT', 'Arial', sans-serif;font-size:20px;">which needs querying are</text><text x="439px" y="489.326px" style="font-family:'ArialMT', 'Arial', sans-serif;font-size:20px;">glued together by</text><text x="599.117px" y="489.326px" style="font-family:'Menlo-Bold', 'Menlo', monospace;font-weight:700;font-size:20px;">fetch-dispatch.js</text><text x="427px" y="513.326px" style="font-family:'ArialMT', 'Arial', sans-serif;font-size:20px;">• update the ST<tspan x="564.842px 580.398px " y="513.326px 513.326px ">OR</tspan>E on</text><text x="641.541px" y="513.326px" style="font-family:'Menlo-Bold', 'Menlo', monospace;font-weight:700;font-size:20px;">redux actions</text></g><path d="M420.423,776.544c44.131,37.537 45.643,97.426 53.153,163.111" style="fill:none;stroke:#8eb4ff;stroke-width:3px;"/><text x="603.027px" y="1036.91px" style="font-family:'Roboto-Bold', 'Roboto';font-weight:700;font-size:48px;fill:#8abe4f;">API</text><text x="206.211px" y="1241.49px" style="font-family:'Roboto-Bold', 'Roboto';font-weight:700;font-size:48px;fill:#8abe4f;">POST<tspan x="328.859px " y="1241.49px ">G</tspan>RE DB</text><text x="826.535px" y="1241.08px" style="font-family:'Roboto-Bold', 'Roboto';font-weight:700;font-size:48px;fill:#8abe4f;">REDIS DB</text><path d="M1005.22,890.387c-79.768,-21.388 -148.756,-8.568 -188.988,53.56" style="fill:none;stroke:url(#_Linear18);stroke-width:3px;"/><path d="M869.149,869.137c-130.678,99.644 -397.395,-3.14 -394.981,80.204" style="fill:none;stroke:url(#_Linear19);stroke-width:3px;"/><path d="M0,194.452l0,-43.983l151.634,0l0,-13.009l38.366,35l-38.366,35l0,-13.008l-151.634,0Z" style="fill:url(#_Linear20);"/><path d="M0,793.992l0,-43.984l151.634,0l0,-13.008l38.366,35l-38.366,35l0,-13.008l-151.634,0Z" style="fill:url(#_Linear21);"/><text x="99.695px" y="182.715px" style="font-family:'Roboto-Bold', 'Roboto';font-weight:700;font-size:30px;fill:#445;">GE<tspan x="137.298px " y="182.715px ">T</tspan></text><path d="M63.361,755.719c51.982,-47.544 283.612,-41.944 337.062,9.392" style="fill:none;stroke:url(#_Linear22);stroke-width:3px;"/><path d="M52.045,223.693c2.906,132.275 10.753,293.161 81.462,295.014" style="fill:none;stroke:#ffa44d;stroke-width:3px;"/><text x="26.472px" y="215.55px" style="font-family:'Menlo-Bold', 'Menlo', monospace;font-weight:700;font-size:14px;fill:#ff7d00;">cookie</text><text x="26.472px" y="810.747px" style="font-family:'Menlo-Bold', 'Menlo', monospace;font-weight:700;font-size:14px;fill:#ff7d00;">cookie</text><path d="M165.507,516.777c46.026,0.736 158.22,-52.849 240.948,-8.575" style="fill:none;stroke:url(#_Linear23);stroke-width:3px;"/><path d="M816,974.94l-15,18l30,0l-15,-18Z" style="fill:#8fb5ff;"/><path d="M1018.39,897.738l-23.088,3.99l15,-25.981l8.088,21.991Z" style="fill:#ffab5a;"/><path d="M473.168,961.836l-15,-18l30,0l-15,18Z" style="fill:#8fb5ff;"/><path d="M473.619,943.836c0.476,-107.242 -55.512,-246.687 -59.603,-407.609" style="fill:none;stroke:#8eb4ff;stroke-width:3px;"/><g id="jwt"><circle cx="857.953" cy="1076.81" r="16" style="fill:#528cff;"/><text x="843.717px" y="1081.41px" style="font-family:'Roboto-Bold', 'Roboto';font-weight:700;font-size:13.016px;fill:#f2ffe5;">JWT</text></g><g id="jwt1" serif:id="jwt"><circle cx="816" cy="958.94" r="16" style="fill:#528cff;"/><text x="801.764px" y="963.538px" style="font-family:'Roboto-Bold', 'Roboto';font-weight:700;font-size:13.016px;fill:#f2ffe5;">JWT</text></g><g id="jwt2" serif:id="jwt"><circle cx="473.168" cy="977.836" r="16" style="fill:#528cff;"/><text x="458.932px" y="982.434px" style="font-family:'Roboto-Bold', 'Roboto';font-weight:700;font-size:13.016px;fill:#f2ffe5;">JWT</text></g><g id="jwt3" serif:id="jwt"><circle cx="414.016" cy="520.227" r="16" style="fill:#528cff;"/><text x="399.78px" y="524.825px" style="font-family:'Roboto-Bold', 'Roboto';font-weight:700;font-size:13.016px;fill:#f2ffe5;">JWT</text></g><g id="jwt4" serif:id="jwt"><circle cx="406.455" cy="770.781" r="16" style="fill:#528cff;"/><text x="392.219px" y="775.379px" style="font-family:'Roboto-Bold', 'Roboto';font-weight:700;font-size:13.016px;fill:#f2ffe5;">JWT</text></g><g id="cookie"><circle cx="73.313" cy="173.128" r="16" style="fill:#ff7d00;"/><text x="64.302px" y="182.26px" style="font-family:'Arial-BoldMT', 'Arial', sans-serif;font-weight:700;font-size:25.092px;fill:#ffecd9;">C</text></g><g id="cookie1" serif:id="cookie"><circle cx="63.361" cy="770.781" r="16" style="fill:#ff7d00;"/><text x="54.35px" y="779.914px" style="font-family:'Arial-BoldMT', 'Arial', sans-serif;font-weight:700;font-size:25.092px;fill:#ffecd9;">C</text></g><g id="cookie2" serif:id="cookie"><circle cx="149.507" cy="516.679" r="16" style="fill:#ff7d00;"/><text x="140.495px" y="525.811px" style="font-family:'Arial-BoldMT', 'Arial', sans-serif;font-weight:700;font-size:25.092px;fill:#ffecd9;">C</text></g><g id="cookie3" serif:id="cookie"><circle cx="1030.42" cy="910.25" r="16" style="fill:#ff7d00;"/><text x="1021.41px" y="919.382px" style="font-family:'Arial-BoldMT', 'Arial', sans-serif;font-weight:700;font-size:25.092px;fill:#ffecd9;">C</text></g><g id="cookie4" serif:id="cookie"><circle cx="870.097" cy="853.91" r="16" style="fill:#ff7d00;"/><text x="861.085px" y="863.042px" style="font-family:'Arial-BoldMT', 'Arial', sans-serif;font-weight:700;font-size:25.092px;fill:#ffecd9;">C</text></g><path d="M94.627,880.557l-74.627,0l0,-706.429l11.159,0" style="fill:none;stroke:#82b7d1;stroke-width:7px;"/><path d="M46.841,174.128l-18,15l0,-30l18,15Z" style="fill:#82b7d1;"/><text x="88.279px" y="782.664px" style="font-family:'Roboto-Bold', 'Roboto';font-weight:700;font-size:30px;fill:#445;">POST</text><g transform="matrix(1,0,0,1,41.04,403.651)"><text x="427px" y="393.326px" style="font-family:'ArialMT', 'Arial', sans-serif;font-size:20px;">• make <tspan x="492.918px 506.258px " y="393.326px 393.326px ">AP</tspan>I request SER<tspan x="643.738px 657.078px " y="393.326px 393.326px ">VE</tspan>R/CLIENT<tspan x="761.18px 766.736px " y="393.326px 393.326px "> s</tspan>ide</text><text x="427px" y="417.326px" style="font-family:'ArialMT', 'Arial', sans-serif;font-size:20px;">• set a</text><text x="488.475px" y="417.326px" style="font-family:'Menlo-Bold', 'Menlo', monospace;font-weight:700;font-size:20px;fill:#ff7d00;">cookie</text><text x="566.277px" y="417.326px" style="font-family:'ArialMT', 'Arial', sans-serif;font-size:20px;">with the</text><text x="640.76px" y="417.326px" style="font-family:'Menlo-Bold', 'Menlo', monospace;font-weight:700;font-size:20px;fill:#528cff;">JWT</text><text x="682.439px" y="417.326px" style="font-family:'ArialMT', 'Arial', sans-serif;font-size:20px;">if an</text><text x="439px" y="441.326px" style="font-family:'Menlo-Bold', 'Menlo', monospace;font-weight:700;font-size:20px;">access_token</text><text x="589.049px" y="441.326px" style="font-family:'ArialMT', 'Arial', sans-serif;font-size:20px;">is in the response</text><text x="427px" y="465.326px" style="font-family:'ArialMT', 'Arial', sans-serif;font-size:20px;">• transfer the cookie content</text><text x="680.809px" y="465.326px" style="font-family:'ArialMT', 'Arial', sans-serif;font-size:20px;">in the</text><text x="439px" y="485.98px" style="font-family:'ArialMT', 'Arial', sans-serif;font-size:20px;">response&apos;s</text><text x="540.65px" y="485.98px" style="font-family:'Menlo-Bold', 'Menlo', monospace;font-weight:700;font-size:20px;">Authorization Header</text></g><g transform="matrix(1,0,0,1,-199.821,151.557)"><text x="497.336px" y="967.048px" style="font-family:'ArialMT', 'Arial', sans-serif;font-size:20px;">control the</text><text x="596.281px" y="967.048px" style="font-family:'Menlo-Bold', 'Menlo', monospace;font-weight:700;font-size:20px;fill:#528cff;">JWT</text></g><text x="212.422px" y="1272.86px" style="font-family:'ArialMT', 'Arial', sans-serif;font-size:20px;">keep all functional informations</text><g transform="matrix(1,0,0,1,38.4416,377.643)"><text x="790.953px" y="894.81px" style="font-family:'ArialMT', 'Arial', sans-serif;font-size:20px;">keep a whitelist of</text><text x="955.484px" y="894.81px" style="font-family:'Menlo-Bold', 'Menlo', monospace;font-weight:700;font-size:20px;fill:#528cff;">JWT</text></g><g transform="matrix(1,0,0,1,764.062,-46.806)"><text x="9.562px" y="1166.3px" style="font-family:'ArialMT', 'Arial', sans-serif;font-size:20px;">issue a JSON W<tspan x="155.899px 167.022px 178.146px 183.341px 193.341px 204.464px " y="1166.3px 1166.3px 1166.3px 1166.3px 1166.3px 1166.3px ">eb Tok</tspan>en (</text><text x="248.927px" y="1166.3px" style="font-family:'Menlo-Bold', 'Menlo', monospace;font-weight:700;font-size:20px;fill:#528cff;">JWT</text><text x="285.05px" y="1166.3px" style="font-family:'ArialMT', 'Arial', sans-serif;font-size:20px;">)</text></g><g transform="matrix(1,0,0,1,26.1731,-419.328)"><text x="76px" y="696.326px" style="font-family:'ArialMT', 'Arial', sans-serif;font-size:20px;">• create a redux ST<tspan x="247.162px 262.719px " y="696.326px 696.326px ">OR</tspan>E</text><text x="76px" y="720.326px" style="font-family:'ArialMT', 'Arial', sans-serif;font-size:20px;">• check all  components&apos;</text><text x="88px" y="744.326px" style="font-family:'Menlo-Bold', 'Menlo', monospace;font-weight:700;font-size:20px;">fetchData</text><text x="201.926px" y="744.326px" style="font-family:'ArialMT', 'Arial', sans-serif;font-size:20px;">to dispath</text><text x="88px" y="768.326px" style="font-family:'ArialMT', 'Arial', sans-serif;font-size:20px;">the</text><text x="121.359px" y="768.326px" style="font-family:'Menlo-Bold', 'Menlo', monospace;font-weight:700;font-size:20px;">redux actions</text><text x="76px" y="792.326px" style="font-family:'ArialMT', 'Arial', sans-serif;font-size:20px;">• get the</text><text x="155.277px" y="792.326px" style="font-family:'Menlo-Bold', 'Menlo', monospace;font-weight:700;font-size:20px;fill:#528cff;">JWT</text><text x="196.957px" y="792.326px" style="font-family:'ArialMT', 'Arial', sans-serif;font-size:20px;">from the</text><text x="88px" y="816.326px" style="font-family:'Menlo-Bold', 'Menlo', monospace;font-weight:700;font-size:20px;fill:#ff7d00;">cookie</text><text x="165.803px" y="816.326px" style="font-family:'ArialMT', 'Arial', sans-serif;font-size:20px;">and pass it to</text><text x="88px" y="840.326px" style="font-family:'ArialMT', 'Arial', sans-serif;font-size:20px;">actions (iso-fetch can&apos;t</text><text x="88px" y="864.326px" style="font-family:'ArialMT', 'Arial', sans-serif;font-size:20px;">acces cookies on the</text><text x="88px" y="888.326px" style="font-family:'ArialMT', 'Arial', sans-serif;font-size:20px;">server)</text></g><text x="518.113px" y="767.506px" style="font-family:'Roboto-Bold', 'Roboto';font-weight:700;font-size:48px;fill:#445;">ISO-FE<tspan x="667.129px 696.168px " y="767.506px 767.506px ">TC</tspan>H</text><text x="979.783px" y="194.456px" style="font-family:'Roboto-Bold', 'Roboto';font-weight:700;font-size:30px;fill:#445;">INI<tspan x="1018.03px 1036.59px 1045.6px " y="194.456px 194.456px 194.456px ">TIA</tspan>LIZED</text><g transform="matrix(1,0,0,1,-28.9891,659.086)"><text x="983.315px" y="-51.571px" style="font-family:'ArialMT', 'Arial', sans-serif;font-size:20px;">• Initialize a redux</text><text x="995.315px" y="-27.571px" style="font-family:'ArialMT', 'Arial', sans-serif;font-size:20px;">ST<tspan x="1020.51px 1036.07px " y="-27.571px -27.571px ">OR</tspan>E with server</text><text x="995.315px" y="-3.571px" style="font-family:'ArialMT', 'Arial', sans-serif;font-size:20px;">initialization datas</text><text x="983.315px" y="20.429px" style="font-family:'ArialMT', 'Arial', sans-serif;font-size:20px;">• Initialize the router</text><text x="983.315px" y="44.429px" style="font-family:'ArialMT', 'Arial', sans-serif;font-size:20px;">• Hydrate the React app</text><text x="995.315px" y="68.429px" style="font-family:'ArialMT', 'Arial', sans-serif;font-size:20px;">with the ST<tspan x="1094.99px 1110.55px " y="68.429px 68.429px ">OR</tspan>E</text></g><path d="M1185.67,720.882l34.367,0l0,-537.874l-36.005,0" style="fill:none;stroke:#b5ace7;stroke-width:7px;"/><defs><linearGradient id="_Linear1" x1="0" y1="0" x2="1" y2="0" gradientUnits="userSpaceOnUse" gradientTransform="matrix(731.76,0,0,41.5512,198.24,668.927)"><stop offset="0" style="stop-color:#82b7d1;stop-opacity:1"/><stop offset="0.5" style="stop-color:#d9d3f9;stop-opacity:1"/><stop offset="1" style="stop-color:#b5ace7;stop-opacity:1"/></linearGradient><linearGradient id="_Linear2" x1="0" y1="0" x2="1" y2="0" gradientUnits="userSpaceOnUse" gradientTransform="matrix(88.5664,0,0,88.5664,153.642,772)"><stop offset="0" style="stop-color:#dcebf2;stop-opacity:1"/><stop offset="1" style="stop-color:#a0c9dc;stop-opacity:1"/></linearGradient><linearGradient id="_Linear3" x1="0" y1="0" x2="1" y2="0" gradientUnits="userSpaceOnUse" gradientTransform="matrix(88.5664,0,0,88.5664,160.836,172)"><stop offset="0" style="stop-color:#dcebf2;stop-opacity:1"/><stop offset="1" style="stop-color:#a0c9dc;stop-opacity:1"/></linearGradient><linearGradient id="_Linear4" x1="0" y1="0" x2="1" y2="0" gradientUnits="userSpaceOnUse" gradientTransform="matrix(88.5664,0,0,88.5664,153.642,520.227)"><stop offset="0" style="stop-color:#dcebf2;stop-opacity:1"/><stop offset="1" style="stop-color:#a0c9dc;stop-opacity:1"/></linearGradient><linearGradient id="_Linear5" x1="0" y1="0" x2="1" y2="0" gradientUnits="userSpaceOnUse" gradientTransform="matrix(-286.781,0,0,70,1125.36,852.437)"><stop offset="0" style="stop-color:#d9d3f9;stop-opacity:1"/><stop offset="1" style="stop-color:#b4abe7;stop-opacity:1"/></linearGradient><linearGradient id="_Linear6" x1="0" y1="0" x2="1" y2="0" gradientUnits="userSpaceOnUse" gradientTransform="matrix(-286.781,0,0,81.1851,1161.67,470.593)"><stop offset="0" style="stop-color:#d9d3f9;stop-opacity:1"/><stop offset="1" style="stop-color:#b4abe7;stop-opacity:1"/></linearGradient><linearGradient id="_Linear7" x1="0" y1="0" x2="1" y2="0" gradientUnits="userSpaceOnUse" gradientTransform="matrix(-286.781,0,0,81.1851,1161.67,312.617)"><stop offset="0" style="stop-color:#d9d3f9;stop-opacity:1"/><stop offset="1" style="stop-color:#b4abe7;stop-opacity:1"/></linearGradient><linearGradient id="_Linear8" x1="0" y1="0" x2="1" y2="0" gradientUnits="userSpaceOnUse" gradientTransform="matrix(-72.3162,4.0971e-14,-4.0971e-14,-72.3162,379.923,212.163)"><stop offset="0" style="stop-color:#ffe5f2;stop-opacity:1"/><stop offset="1" style="stop-color:#ffbfdd;stop-opacity:1"/></linearGradient><linearGradient id="_Linear9" x1="0" y1="0" x2="1" y2="0" gradientUnits="userSpaceOnUse" gradientTransform="matrix(-72.3162,4.0971e-14,-4.0971e-14,-72.3162,379.923,245.991)"><stop offset="0" style="stop-color:#ffe5f2;stop-opacity:1"/><stop offset="1" style="stop-color:#ffbfdd;stop-opacity:1"/></linearGradient><linearGradient id="_Linear10" x1="0" y1="0" x2="1" y2="0" gradientUnits="userSpaceOnUse" gradientTransform="matrix(3.84402e-14,41.3311,-72.3162,1.89882e-14,154.92,368.761)"><stop offset="0" style="stop-color:#ffe5f2;stop-opacity:1"/><stop offset="1" style="stop-color:#ffbfdd;stop-opacity:1"/></linearGradient><linearGradient id="_Linear11" x1="0" y1="0" x2="1" y2="0" gradientUnits="userSpaceOnUse" gradientTransform="matrix(-5.62093e-15,-91.7967,-91.7967,5.62093e-15,800.389,1021.32)"><stop offset="0" style="stop-color:#efffd9;stop-opacity:1"/><stop offset="1" style="stop-color:#8abe4f;stop-opacity:1"/></linearGradient><linearGradient id="_Linear12" x1="0" y1="0" x2="1" y2="0" gradientUnits="userSpaceOnUse" gradientTransform="matrix(3.84402e-14,41.3311,-72.3162,1.89882e-14,154.92,642.227)"><stop offset="0" style="stop-color:#ffe5f2;stop-opacity:1"/><stop offset="1" style="stop-color:#ffbfdd;stop-opacity:1"/></linearGradient><linearGradient id="_Linear13" x1="0" y1="0" x2="1" y2="0" gradientUnits="userSpaceOnUse" gradientTransform="matrix(-4.35018e-14,-41.3311,72.3162,-2.78444e-14,1134.25,738.014)"><stop offset="0" style="stop-color:#ffe5f2;stop-opacity:1"/><stop offset="1" style="stop-color:#ffbfdd;stop-opacity:1"/></linearGradient><linearGradient id="_Linear14" x1="0" y1="0" x2="1" y2="0" gradientUnits="userSpaceOnUse" gradientTransform="matrix(3.84402e-14,41.3311,-72.3162,1.89882e-14,497.752,368.761)"><stop offset="0" style="stop-color:#ffe5f2;stop-opacity:1"/><stop offset="1" style="stop-color:#ffbfdd;stop-opacity:1"/></linearGradient><linearGradient id="_Linear15" x1="0" y1="0" x2="1" y2="0" gradientUnits="userSpaceOnUse" gradientTransform="matrix(-3.84402e-14,41.3311,72.3162,1.89882e-14,791.415,917.203)"><stop offset="0" style="stop-color:#ffe5f2;stop-opacity:1"/><stop offset="1" style="stop-color:#ffbfdd;stop-opacity:1"/></linearGradient><linearGradient id="_Linear16" x1="0" y1="0" x2="1" y2="0" gradientUnits="userSpaceOnUse" gradientTransform="matrix(-72.3162,4.0971e-14,-4.0971e-14,-72.3162,379.923,245.174)"><stop offset="0" style="stop-color:#ffe5f2;stop-opacity:1"/><stop offset="1" style="stop-color:#ffbfdd;stop-opacity:1"/></linearGradient><linearGradient id="_Linear17" x1="0" y1="0" x2="1" y2="0" gradientUnits="userSpaceOnUse" gradientTransform="matrix(72.3162,4.0971e-14,4.0971e-14,-72.3162,900.25,339.354)"><stop offset="0" style="stop-color:#ffe5f2;stop-opacity:1"/><stop offset="1" style="stop-color:#ffbfdd;stop-opacity:1"/></linearGradient><linearGradient id="_Linear18" x1="0" y1="0" x2="1" y2="0" gradientUnits="userSpaceOnUse" gradientTransform="matrix(-205.84,2.52081e-14,-2.52081e-14,-205.84,1035.12,866.484)"><stop offset="0" style="stop-color:#ffa44d;stop-opacity:1"/><stop offset="1" style="stop-color:#a8c5ff;stop-opacity:1"/></linearGradient><linearGradient id="_Linear19" x1="0" y1="0" x2="1" y2="0" gradientUnits="userSpaceOnUse" gradientTransform="matrix(-307.121,-13.0787,-13.0787,307.121,810.535,852.8)"><stop offset="0" style="stop-color:#ffa44d;stop-opacity:1"/><stop offset="1" style="stop-color:#a8c5ff;stop-opacity:1"/></linearGradient><linearGradient id="_Linear20" x1="0" y1="0" x2="1" y2="0" gradientUnits="userSpaceOnUse" gradientTransform="matrix(-79.3566,-1.11406,1.11406,-79.3566,80,157.542)"><stop offset="0" style="stop-color:#a3cbdd;stop-opacity:1"/><stop offset="1" style="stop-color:#fff;stop-opacity:1"/></linearGradient><linearGradient id="_Linear21" x1="0" y1="0" x2="1" y2="0" gradientUnits="userSpaceOnUse" gradientTransform="matrix(-79.3566,-1.11406,1.11406,-79.3566,80,757.082)"><stop offset="0" style="stop-color:#a3cbdd;stop-opacity:1"/><stop offset="1" style="stop-color:#fff;stop-opacity:1"/></linearGradient><linearGradient id="_Linear22" x1="0" y1="0" x2="1" y2="0" gradientUnits="userSpaceOnUse" gradientTransform="matrix(252.45,0,0,15.055,163.609,658.736)"><stop offset="0" style="stop-color:#ffa44d;stop-opacity:1"/><stop offset="1" style="stop-color:#a8c5ff;stop-opacity:1"/></linearGradient><linearGradient id="_Linear23" x1="0" y1="0" x2="1" y2="0" gradientUnits="userSpaceOnUse" gradientTransform="matrix(264.28,0,0,32.5681,149.507,478.38)"><stop offset="0" style="stop-color:#ffa44d;stop-opacity:1"/><stop offset="1" style="stop-color:#a8c5ff;stop-opacity:1"/></linearGradient></defs></svg>