<?xml version="1.0" encoding="UTF-8" standalone="no"?><!DOCTYPE svg PUBLIC "-//W3C//DTD SVG 1.1//EN" "http://www.w3.org/Graphics/SVG/1.1/DTD/svg11.dtd"><svg width="100%" height="100%" viewBox="0 0 896 500" version="1.1" xmlns="http://www.w3.org/2000/svg" xmlns:xlink="http://www.w3.org/1999/xlink" xml:space="preserve" xmlns:serif="http://www.serif.com/" style="fill-rule:evenodd;clip-rule:evenodd;stroke-linecap:round;stroke-linejoin:round;stroke-miterlimit:1.5;"><rect id="configuration" x="0" y="0" width="896" height="500" style="fill:none;"/><g id="file-shared"><path d="M410,110.007c0,-5.523 -4.484,-10.007 -10.007,-10.007l-59.986,0c-5.523,0 -10.007,4.484 -10.007,10.007l0,79.986c0,5.523 4.484,10.007 10.007,10.007l59.986,0c5.523,0 10.007,-4.484 10.007,-10.007l0,-79.986Z" style="fill:#ffe5f2;"/><path d="M345,120l50,0" style="fill:none;stroke:#ffbfdd;stroke-width:7px;"/><path d="M345,140l50,0" style="fill:none;stroke:#ffbfdd;stroke-width:7px;"/><path d="M345,160l30,0" style="fill:none;stroke:#ffbfdd;stroke-width:7px;"/></g><text x="333.311px" y="223.528px" style="font-family:'ArialMT', 'Arial', sans-serif;font-size:20px;fill:#ff0078;">conﬁg.js</text><text x="486.636px" y="304.561px" style="font-family:'ArialMT', 'Arial', sans-serif;font-size:20px;fill:#7e6ed6;">conﬁg-client.js</text><text x="482.749px" y="154.561px" style="font-family:'ArialMT', 'Arial', sans-serif;font-size:20px;fill:#5498b9;">conﬁg-server<tspan x="597.241px 602.798px " y="154.561px 154.561px ">.j</tspan>s</text><text x="694.253px" y="139.561px" style="font-family:'ArialMT', 'Arial', sans-serif;font-size:20px;fill:#5498b9;">server bundle</text><text x="698.691px" y="291.426px" style="font-family:'ArialMT', 'Arial', sans-serif;font-size:20px;fill:#7e6ed6;">client bundle</text><text x="703.706px" y="470.16px" style="font-family:'ArialMT', 'Arial', sans-serif;font-size:20px;fill:#4b4b77;">test context</text><g id="_-webpack" serif:id="©webpack"><path d="M67.293,120.642l24.515,13.867l0,27.739l-24.515,13.867l-24.516,-13.867l0,-27.739l24.516,-13.867Z" style="fill:#fff;fill-rule:nonzero;"/><path d="M87.431,161.292l-19.328,10.933l0,-8.513l12.043,-6.627l7.285,4.207Zm1.324,-1.198l0,-22.862l-7.07,4.086l0,14.697l7.07,4.079Zm-41.676,1.198l19.327,10.933l0,-8.513l-12.049,-6.627l-7.278,4.207Zm-1.324,-1.198l0,-22.862l7.069,4.086l0,14.697l-7.069,4.079Zm0.829,-24.344l19.822,-11.212l0,8.228l-12.701,6.988l-0.102,0.057l-7.019,-4.061Zm41.341,0l-19.822,-11.212l0,8.228l12.702,6.981l0.101,0.057l7.019,-4.054Z" style="fill:#8ed6fb;fill-rule:nonzero;"/><path d="M66.406,161.773l-11.884,-6.537l0,-12.942l11.884,6.86l0,12.619Zm1.697,0l11.884,-6.531l0,-12.948l-11.884,6.86l0,12.619Zm-12.777,-20.974l11.929,-6.557l11.928,6.557l-11.928,6.886l-11.929,-6.886Z" style="fill:#1c78c0;fill-rule:nonzero;"/><path d="M116.532,157.149l5.227,0l5.327,-17.75l-5.093,0l-3.155,12.593l-3.363,-12.593l-4.409,0l-3.396,12.593l-3.123,-12.593l-5.093,0l5.296,17.75l5.226,0l3.294,-11.371l3.262,11.371Zm10.826,-8.824c0,5.327 3.63,9.267 9.338,9.267c4.415,0 6.791,-2.648 7.469,-3.902l-3.092,-2.344c-0.507,0.748 -1.9,2.173 -4.314,2.173c-2.616,0 -4.516,-1.698 -4.618,-4.073l12.499,0c0.031,-0.342 0.031,-0.678 0.031,-1.02c0,-5.803 -3.123,-9.471 -8.621,-9.471c-5.062,0 -8.692,4.004 -8.692,9.37Zm4.923,-1.939c0.202,-2.033 1.628,-3.598 3.838,-3.598c2.142,0 3.7,1.425 3.801,3.598l-7.639,0Zm14.158,10.763l4.415,0l0,-1.831c0.475,0.577 2.242,2.274 5.264,2.274c5.093,0 8.691,-3.832 8.691,-9.299c0,-5.499 -3.325,-9.331 -8.418,-9.331c-3.054,0 -4.821,1.698 -5.265,2.306l0,-8.66l-4.681,0l0,24.541l-0.006,0Zm4.548,-8.824c0,-3.326 1.97,-5.227 4.548,-5.227c2.718,0 4.549,2.142 4.549,5.227c0,3.154 -1.901,5.124 -4.549,5.124c-2.85,0 -4.548,-2.312 -4.548,-5.124Zm15.647,15.171l4.681,0l0,-8.184c0.444,0.576 2.205,2.274 5.264,2.274c5.093,0 8.419,-3.833 8.419,-9.331c0,-5.429 -3.598,-9.3 -8.691,-9.3c-3.022,0 -4.789,1.698 -5.264,2.306l0,-1.868l-4.416,0l0,24.103l0.007,0Zm4.548,-15.273c0,-2.819 1.698,-5.125 4.548,-5.125c2.648,0 4.549,1.97 4.549,5.125c0,3.092 -1.831,5.226 -4.549,5.226c-2.578,0 -4.548,-1.9 -4.548,-5.226Zm14.665,3.427c0,3.731 3.053,5.942 6.651,5.942c2.04,0 3.396,-0.608 4.314,-1.596l0.304,1.153l4.143,0l0,-11.238c0,-3.972 -1.697,-6.956 -7.399,-6.956c-2.717,0 -5.397,1.02 -6.993,2.104l1.767,3.192c1.324,-0.678 2.952,-1.254 4.72,-1.254c2.071,0 3.224,1.052 3.224,2.616l0,1.153c-0.646,-0.443 -2.04,-0.982 -3.839,-0.982c-4.143,-0.006 -6.892,2.37 -6.892,5.866Zm4.681,-0.139c0,-1.457 1.255,-2.477 3.054,-2.477c1.799,0 3.091,0.919 3.091,2.477c0,1.495 -1.292,2.445 -3.053,2.445c-1.761,0 -3.092,-0.982 -3.092,-2.445Zm22.102,1.938c-2.952,0 -5.055,-2.141 -5.055,-5.156c0,-2.851 1.869,-5.195 4.89,-5.195c2.002,0 3.364,0.982 4.143,1.698l1.324,-3.94c-1.153,-0.881 -2.99,-1.901 -5.6,-1.901c-5.397,0 -9.438,3.972 -9.438,9.37c0,5.397 3.94,9.267 9.47,9.267c2.578,0 4.517,-1.083 5.53,-1.9l-1.254,-3.833c-0.785,0.64 -2.211,1.59 -4.01,1.59Zm7.025,3.7l4.682,0l0,-9.167l5.942,9.167l5.498,0l-6.721,-9.711l6.246,-8.045l-5.264,0l-5.701,7.468l0,-14.253l-4.682,0l0,24.541Z" style="fill:#1c78c0;fill-rule:nonzero;"/></g><g id="bundle-server"><path d="M754.736,40.401l35,19.797l0,39.604l-35,19.797l-35,-19.797l0,-39.604l35,-19.797Z" style="fill:#fff;fill-rule:nonzero;"/><path d="M783.487,98.436l-27.593,15.61l0,-12.155l17.192,-9.46l10.401,6.005Zm1.89,-1.709l0,-32.64l-10.093,5.834l0,20.981l10.093,5.825Zm-59.5,1.709l27.593,15.61l0,-12.155l-17.201,-9.46l-10.392,6.005Zm-1.89,-1.709l0,-32.64l10.093,5.834l0,20.981l-10.093,5.825Zm1.185,-34.756l28.298,-16.008l0,11.748l-18.133,9.976l-0.145,0.081l-10.02,-5.797Zm59.02,0l-28.298,-16.008l0,11.748l18.133,9.967l0.145,0.081l10.02,-5.788Z" style="fill:#dcebf2;fill-rule:nonzero;"/><path d="M753.47,99.123l-16.966,-9.333l0,-18.477l16.966,9.795l0,18.015Zm2.424,0l16.966,-9.324l0,-18.486l-16.966,9.795l0,18.015Zm-18.242,-29.944l17.03,-9.361l17.03,9.361l-17.03,9.831l-17.03,-9.831Z" style="fill:#5498b9;fill-rule:nonzero;"/></g><g id="bundle-server1" serif:id="bundle-server"><path d="M754.736,190.401l35,19.797l0,39.604l-35,19.797l-35,-19.797l0,-39.604l35,-19.797Z" style="fill:#fff;fill-rule:nonzero;"/><path d="M783.487,248.436l-27.593,15.61l0,-12.155l17.192,-9.46l10.401,6.005Zm1.89,-1.709l0,-32.64l-10.093,5.834l0,20.981l10.093,5.825Zm-59.5,1.709l27.593,15.61l0,-12.155l-17.201,-9.46l-10.392,6.005Zm-1.89,-1.709l0,-32.64l10.093,5.834l0,20.981l-10.093,5.825Zm1.185,-34.756l28.298,-16.008l0,11.748l-18.133,9.976l-0.145,0.081l-10.02,-5.797Zm59.02,0l-28.298,-16.008l0,11.748l18.133,9.967l0.145,0.081l10.02,-5.788Z" style="fill:#d9d3f9;fill-rule:nonzero;"/><path d="M753.47,249.123l-16.966,-9.333l0,-18.477l16.966,9.795l0,18.015Zm2.424,0l16.966,-9.324l0,-18.486l-16.966,9.795l0,18.015Zm-18.242,-29.944l17.03,-9.361l17.03,9.361l-17.03,9.831l-17.03,-9.831Z" style="fill:#7e6ed6;fill-rule:nonzero;"/></g><g id="_-ava" serif:id="©ava"><path d="M60.702,376.16c1.236,0.769 2.106,1.715 2.623,2.812c0.769,1.766 1.627,3.683 2.56,5.763c0.933,2.081 1.879,4.187 2.812,6.318c0.933,2.131 1.841,4.212 2.698,6.23c0.858,2.017 1.64,3.871 2.321,5.548c0.681,1.677 1.223,3.102 1.627,4.275c0.403,1.173 0.605,1.955 0.605,2.32c0,0.631 -0.088,1.236 -0.252,1.842c-0.164,0.605 -0.467,1.16 -0.908,1.651c-0.442,0.492 -1.06,0.896 -1.841,1.186c-0.795,0.29 -1.816,0.441 -3.065,0.441c-1.324,0 -2.396,-0.176 -3.228,-0.529c-0.832,-0.354 -1.513,-0.795 -2.068,-1.35c-0.555,-0.555 -1.009,-1.135 -1.375,-1.74c-0.365,-0.605 -0.744,-1.185 -1.135,-1.74c-0.391,-0.555 -0.832,-0.996 -1.324,-1.35c-0.492,-0.353 -1.172,-0.529 -2.017,-0.529l-3.531,0c-1.034,0 -1.841,0.176 -2.459,0.529c-0.606,0.354 -1.097,0.795 -1.488,1.35c-0.391,0.555 -0.744,1.135 -1.072,1.74c-0.328,0.605 -0.757,1.185 -1.274,1.74c-0.517,0.555 -1.185,0.996 -2.018,1.35c-0.832,0.353 -1.942,0.529 -3.341,0.529c-2.056,0 -3.569,-0.454 -4.527,-1.374c-0.959,-0.921 -1.438,-2.005 -1.438,-3.254c0,-0.479 0.189,-1.311 0.58,-2.509c0.391,-1.198 0.908,-2.623 1.576,-4.275c0.694,-1.665 1.451,-3.493 2.295,-5.524c0.845,-2.017 1.741,-4.111 2.699,-6.254c0.958,-2.157 1.917,-4.3 2.863,-6.457c0.958,-2.156 1.879,-4.224 2.761,-6.204c0.517,-1.135 1.375,-2.043 2.56,-2.699c1.198,-0.656 2.522,-0.996 3.998,-0.996c1.286,0 2.547,0.391 3.783,1.16Zm44.603,0.189c0.958,0.87 1.437,1.98 1.437,3.342c0,0.769 -0.189,1.778 -0.58,3.039c-0.391,1.249 -0.882,2.661 -1.488,4.25c-0.605,1.576 -1.311,3.291 -2.093,5.132c-0.794,1.841 -1.589,3.708 -2.396,5.625c-1.097,2.61 -2.055,4.955 -2.837,7.036c-0.795,2.081 -1.602,3.846 -2.422,5.297c-0.832,1.45 -1.727,2.572 -2.698,3.367c-0.971,0.794 -2.182,1.185 -3.607,1.185c-1.475,0 -2.698,-0.315 -3.669,-0.971c-0.971,-0.643 -1.854,-1.614 -2.649,-2.926c-0.794,-1.299 -1.563,-2.951 -2.32,-4.93c-0.756,-1.98 -1.639,-4.338 -2.673,-7.062c-0.769,-2.056 -1.564,-4.073 -2.371,-6.041c-0.807,-1.967 -1.538,-3.783 -2.207,-5.435c-0.656,-1.652 -1.198,-3.14 -1.627,-4.439c-0.416,-1.298 -0.63,-2.32 -0.63,-3.064c0,-1.69 0.567,-2.9 1.715,-3.644c1.135,-0.732 2.56,-1.097 4.25,-1.097c1.538,0 2.749,0.189 3.606,0.58c0.858,0.391 1.614,0.895 2.232,1.513c0.442,0.441 0.883,1.084 1.324,1.929c0.442,0.845 0.858,1.778 1.236,2.787c0.391,1.009 0.769,2.031 1.16,3.065c0.391,1.034 0.744,1.979 1.072,2.837c0.328,0.87 0.656,1.564 0.971,2.093c0.315,0.53 0.593,0.795 0.858,0.795c0.29,0 0.592,-0.265 0.908,-0.795c0.315,-0.529 0.63,-1.223 0.971,-2.068c0.328,-0.845 0.668,-1.778 1.021,-2.787c0.353,-1.009 0.719,-2.017 1.097,-3.001c0.379,-0.984 0.795,-1.904 1.211,-2.724c0.416,-0.832 0.857,-1.463 1.299,-1.904c0.403,-0.404 0.794,-0.744 1.185,-1.022c0.391,-0.277 0.807,-0.504 1.274,-0.693c0.454,-0.189 0.983,-0.315 1.576,-0.416c0.593,-0.089 1.299,-0.139 2.156,-0.139c1.501,0 2.749,0.429 3.708,1.286Zm18.726,-0.189c1.236,0.769 2.106,1.715 2.623,2.812c0.769,1.766 1.627,3.683 2.56,5.763c0.933,2.081 1.879,4.187 2.812,6.318c0.933,2.131 1.841,4.212 2.699,6.23c0.857,2.017 1.639,3.871 2.32,5.548c0.681,1.677 1.223,3.102 1.627,4.275c0.403,1.173 0.605,1.955 0.605,2.32c0,0.631 -0.088,1.236 -0.252,1.842c-0.164,0.605 -0.467,1.16 -0.908,1.651c-0.441,0.492 -1.059,0.896 -1.841,1.186c-0.794,0.29 -1.816,0.441 -3.064,0.441c-1.324,0 -2.396,-0.176 -3.229,-0.529c-0.832,-0.354 -1.513,-0.795 -2.068,-1.35c-0.555,-0.555 -1.009,-1.135 -1.374,-1.74c-0.366,-0.605 -0.744,-1.185 -1.135,-1.74c-0.391,-0.555 -0.832,-0.996 -1.324,-1.35c-0.492,-0.353 -1.173,-0.529 -2.018,-0.529l-3.531,0c-1.034,0 -1.841,0.176 -2.459,0.529c-0.605,0.354 -1.097,0.795 -1.488,1.35c-0.391,0.555 -0.744,1.135 -1.072,1.74c-0.328,0.605 -0.756,1.185 -1.273,1.74c-0.517,0.555 -1.186,0.996 -2.018,1.35c-0.832,0.353 -1.942,0.529 -3.342,0.529c-2.055,0 -3.569,-0.454 -4.527,-1.374c-0.958,-0.921 -1.438,-2.005 -1.438,-3.254c0,-0.479 0.19,-1.311 0.58,-2.509c0.391,-1.198 0.908,-2.623 1.577,-4.275c0.656,-1.652 1.412,-3.493 2.257,-5.511c0.845,-2.018 1.74,-4.111 2.699,-6.255c0.958,-2.156 1.916,-4.3 2.862,-6.456c0.959,-2.157 1.879,-4.225 2.762,-6.205c0.517,-1.134 1.374,-2.042 2.56,-2.698c1.198,-0.656 2.522,-0.996 3.997,-0.996c1.324,-0.013 2.585,0.378 3.821,1.147Z" style="fill:#4b4b77;fill-rule:nonzero;"/><path d="M56.793,430.473c0.302,0 0.592,-0.164 0.731,-0.441c0,-0.013 1.198,-2.22 2.383,-4.83c0.593,-1.311 1.198,-2.711 1.652,-4.01c0.227,-0.656 0.416,-1.274 0.555,-1.841c0.139,-0.58 0.227,-1.11 0.227,-1.589c0,-1.879 -0.693,-3.556 -1.854,-4.716c-0.971,-0.971 -2.282,-1.564 -3.707,-1.564c-1.425,0 -2.736,0.593 -3.707,1.564c-1.148,1.147 -1.854,2.824 -1.854,4.716c0,0.492 0.088,1.021 0.227,1.589c0.239,1.009 0.656,2.156 1.122,3.342c1.425,3.543 3.468,7.326 3.468,7.351c0.164,0.253 0.441,0.429 0.757,0.429Zm63.329,0c0.303,0 0.593,-0.164 0.731,-0.441c0,-0.013 1.198,-2.22 2.384,-4.83c0.593,-1.311 1.198,-2.711 1.652,-4.01c0.227,-0.656 0.416,-1.274 0.555,-1.841c0.138,-0.58 0.227,-1.11 0.227,-1.589c0,-1.879 -0.694,-3.556 -1.854,-4.716c-0.971,-0.971 -2.283,-1.564 -3.708,-1.564c-1.425,0 -2.736,0.593 -3.707,1.564c-1.148,1.147 -1.854,2.824 -1.854,4.716c0,0.492 0.089,1.021 0.227,1.589c0.24,1.009 0.656,2.156 1.123,3.342c1.425,3.543 3.467,7.326 3.467,7.351c0.164,0.253 0.442,0.429 0.757,0.429Z" style="fill:#e0c7c1;fill-rule:nonzero;"/></g><g id="file-server"><path d="M590,40.007c0,-5.523 -4.484,-10.007 -10.007,-10.007l-59.986,0c-5.523,0 -10.007,4.484 -10.007,10.007l0,79.986c0,5.523 4.484,10.007 10.007,10.007l59.986,0c5.523,0 10.007,-4.484 10.007,-10.007l0,-79.986Z" style="fill:#dcebf2;"/><path d="M525,50l50,0" style="fill:none;stroke:#a0c9dc;stroke-width:7px;"/><path d="M525,70l50,0" style="fill:none;stroke:#a0c9dc;stroke-width:7px;"/><path d="M525,90l30,0" style="fill:none;stroke:#a0c9dc;stroke-width:7px;"/></g><g id="file-server1" serif:id="file-server"><path d="M590,190.007c0,-5.523 -4.484,-10.007 -10.007,-10.007l-59.986,0c-5.523,0 -10.007,4.484 -10.007,10.007l0,79.986c0,5.523 4.484,10.007 10.007,10.007l59.986,0c5.523,0 10.007,-4.484 10.007,-10.007l0,-79.986Z" style="fill:#d9d3f9;"/><path d="M525,200l50,0" style="fill:#d9d3f9;stroke:#b5ace7;stroke-width:7px;"/><path d="M525,220l50,0" style="fill:#d9d3f9;stroke:#b5ace7;stroke-width:7px;"/><path d="M525,240l30,0" style="fill:#d9d3f9;stroke:#b5ace7;stroke-width:7px;"/></g><g id="file-test"><path d="M794.819,352.273c0,-5.523 -4.484,-10.007 -10.006,-10.007l-59.987,0c-5.523,0 -10.007,4.484 -10.007,10.007l0,79.987c0,5.523 4.484,10.006 10.007,10.006l59.987,0c5.522,0 10.006,-4.483 10.006,-10.006l0,-79.987Z" style="fill:#e0c7c1;"/><path d="M729.819,362.266l50,0" style="fill:none;stroke:#b1938b;stroke-width:7px;"/><path d="M729.819,382.266l50,0" style="fill:none;stroke:#b1938b;stroke-width:7px;"/><path d="M729.819,402.266l30,0" style="fill:none;stroke:#b1938b;stroke-width:7px;"/></g><path d="M314,150l-61,0" style="fill:none;stroke:#8ed6fb;stroke-width:7px;"/><path d="M670,397.208l-511,0" style="fill:none;stroke:#e0c7c1;stroke-width:7px;"/><path d="M495,79.527c-32.299,0.802 -39.818,50.73 -73.122,55.473" style="fill:none;stroke:url(#_Linear1);stroke-width:7px;"/><path d="M605,79.527l74.868,0" style="fill:none;stroke:#a0c9dc;stroke-width:7px;"/><path d="M495,227.737c-32.299,-0.803 -39.818,-50.731 -73.122,-55.474" style="fill:none;stroke:url(#_Linear2);stroke-width:7px;"/><path d="M370,236.704c1.866,81.711 29.933,156.267 148,160.504" style="fill:none;stroke:url(#_Linear3);stroke-width:7px;"/><path d="M605,227.737l65,0" style="fill:none;stroke:#b5ace7;stroke-width:7px;"/><path d="M323,150l-18,15l0,-30l18,15Z" style="fill:#8ed6fb;"/><path d="M688,397.208l-18,15l0,-30l18,15Z" style="fill:#e0c7c1;"/><path d="M504,80l-18,15l0,-30l18,15Z" style="fill:#a0c9dc;"/><path d="M504,227.737l-18,15l0,-30l18,15Z" style="fill:#b5ace7;"/><path d="M688,79.527l-18,15l0,-30l18,15Z" style="fill:#a0c9dc;"/><path d="M688,227.737l-18,15l0,-30l18,15Z" style="fill:#b5ace7;"/><defs><linearGradient id="_Linear1" x1="0" y1="0" x2="1" y2="0" gradientUnits="userSpaceOnUse" gradientTransform="matrix(61.6527,0,0,-61.6527,421.878,107.263)"><stop offset="0" style="stop-color:#ffbfdd;stop-opacity:1"/><stop offset="1" style="stop-color:#a0c9dc;stop-opacity:1"/></linearGradient><linearGradient id="_Linear2" x1="0" y1="0" x2="1" y2="0" gradientUnits="userSpaceOnUse" gradientTransform="matrix(61.6527,0,0,61.6527,421.878,200)"><stop offset="0" style="stop-color:#ffbfdd;stop-opacity:1"/><stop offset="1" style="stop-color:#b5ace7;stop-opacity:1"/></linearGradient><linearGradient id="_Linear3" x1="0" y1="0" x2="1" y2="0" gradientUnits="userSpaceOnUse" gradientTransform="matrix(-105,1.28588e-14,-1.28588e-14,-105,475,316.956)"><stop offset="0" style="stop-color:#e0c7c1;stop-opacity:1"/><stop offset="1" style="stop-color:#ffbfdd;stop-opacity:1"/></linearGradient></defs></svg>