<?xml version="1.0" encoding="UTF-8" standalone="no"?><!DOCTYPE svg PUBLIC "-//W3C//DTD SVG 1.1//EN" "http://www.w3.org/Graphics/SVG/1.1/DTD/svg11.dtd"><svg width="100%" height="100%" viewBox="0 0 1001 330" version="1.1" xmlns="http://www.w3.org/2000/svg" xmlns:xlink="http://www.w3.org/1999/xlink" xml:space="preserve" xmlns:serif="http://www.serif.com/" style="fill-rule:evenodd;clip-rule:evenodd;"><rect id="hoc-authentication" x="0.5" y="0" width="1000" height="330" style="fill:none;"/><path d="M827.144,40c0,-11.038 -8.962,-20 -20,-20l-260,0c-11.038,0 -20,8.962 -20,20l0,250c0,11.038 8.962,20 20,20l260,0c11.038,0 20,-8.962 20,-20l0,-250Z" style="fill:#ffe5f2;"/><path d="M347.144,40c0,-11.038 -8.962,-20 -20,-20l-100,0c-11.038,0 -20,8.962 -20,20l0,250c0,11.038 8.962,20 20,20l100,0c11.038,0 20,-8.962 20,-20l0,-250Z" style="fill:#ffe5f2;"/><path d="M507.144,40c0,-11.038 -8.962,-20 -20,-20l-100,0c-11.038,0 -20,8.962 -20,20l0,250c0,11.038 8.962,20 20,20l100,0c11.038,0 20,-8.962 20,-20l0,-250Z" style="fill:#ffe5f2;"/><text x="539.636px" y="59.203px" style="font-family:'Roboto-Bold', 'Roboto';font-weight:700;font-size:31.724px;fill:#445;">HoC authentication</text><text x="223.633px" y="59.203px" style="font-family:'Roboto-Bold', 'Roboto';font-weight:700;font-size:31.724px;fill:#445;">Router</text><text x="376.122px" y="59.203px" style="font-family:'Roboto-Bold', 'Roboto';font-weight:700;font-size:31.724px;fill:#445;">Connect</text><text x="629.429px" y="243.14px" style="font-family:'Menlo-Bold', 'Menlo', monospace;font-weight:700;font-size:20px;">render()</text><text x="617.388px" y="155.605px" style="font-family:'Menlo-Bold', 'Menlo', monospace;font-weight:700;font-size:20px;">redirect()</text><path d="M435.741,174.555l0,-43.983l127.806,0l0,-13.009l35,35l-35,35l0,-13.008l-127.806,0Z" style="fill:url(#_Linear1);"/><g id="_-react-router" serif:id="©react-router"><path d="M268.507,72.92c-0.625,0.149 -1.578,0.745 -2.144,1.31c-0.923,0.953 -1.102,1.37 -1.489,3.306c-0.179,0.952 0.923,3.215 1.906,3.9c1.012,0.715 2.441,1.132 4.645,1.37c3.216,0.357 4.139,1.429 4.139,4.943c0,3.097 -0.864,3.931 -4.407,4.288c-3.841,0.387 -5.807,1.876 -6.223,4.764c-0.239,1.757 0.923,3.961 2.531,4.705c3.662,1.727 7.087,-0.447 7.801,-4.943c0.477,-2.888 1.4,-3.692 4.497,-3.931c3.573,-0.297 5.419,-1.518 6.104,-4.019c0.625,-2.293 -0.685,-4.854 -2.918,-5.747c-0.596,-0.239 -1.966,-0.536 -3.038,-0.655c-3.364,-0.358 -4.228,-0.953 -4.585,-3.127c-0.506,-3.007 -0.715,-3.514 -1.787,-4.705c-1.25,-1.399 -3.156,-1.965 -5.032,-1.459Z" style="fill:#ba514f;fill-rule:nonzero;"/><path d="M246.383,92.484c-4.854,1.072 -5.033,8.158 -0.239,9.409c1.191,0.328 1.311,0.328 2.502,0.03c2.68,-0.715 4.198,-3.276 3.484,-5.866c-0.715,-2.621 -3.157,-4.139 -5.747,-3.573Zm43.801,0.268c-3.126,1.072 -4.198,4.704 -2.203,7.503c1.251,1.787 4.407,2.383 6.342,1.162c3.187,-1.966 3.067,-6.879 -0.208,-8.427c-1.519,-0.745 -2.352,-0.774 -3.931,-0.238Zm-32.159,-10.095c-3.305,0.715 -4.883,4.616 -3.037,7.415c2.65,3.99 8.874,2.144 8.933,-2.65c0.03,-3.067 -2.888,-5.42 -5.896,-4.765Z" style="fill:#252525;fill-rule:nonzero;"/></g><path d="M278.949,174.555l0,-43.983l127.806,0l0,-13.009l35,35l-35,35l0,-13.008l-127.806,0Z" style="fill:url(#_Linear2);"/><path d="M435.741,255.72l0,-43.983l127.806,0l0,-13.009l35,35l-35,35l0,-13.008l-127.806,0Z" style="fill:url(#_Linear3);"/><text x="320.733px" y="158.436px" style="font-family:'ArialMT', 'Arial', sans-serif;font-size:16px;">ROUTES</text><text x="473.175px" y="239.601px" style="font-family:'ArialMT', 'Arial', sans-serif;font-size:16px;">ST<tspan x="493.331px 505.777px " y="239.601px 239.601px ">OR</tspan>E</text><g id="routes"><path d="M425.427,151.138l-13.235,-13.235c-0.574,-0.574 -1.5,-0.574 -2.074,0l-13.235,13.235c-0.574,0.574 -0.574,1.5 0,2.074l13.235,13.235c0.574,0.574 1.5,0.574 2.074,0l13.235,-13.235c0.574,-0.559 0.574,-1.486 0,-2.074Z" style="fill:#ba514f;"/><path d="M414.089,155.859l0,-3.677l-5.882,0l0,4.412l-2.942,0l0,-5.882c0,-0.809 0.662,-1.471 1.471,-1.471l7.353,0l0,-3.676l5.147,5.147l-5.147,5.147Z" style="fill:#fff;"/></g><g id="routes1" serif:id="routes"><path d="M577.65,151.138l-13.236,-13.235c-0.573,-0.574 -1.5,-0.574 -2.073,0l-13.236,13.235c-0.573,0.574 -0.573,1.5 0,2.074l13.236,13.235c0.573,0.574 1.5,0.574 2.073,0l13.236,-13.235c0.574,-0.559 0.574,-1.486 0,-2.074Z" style="fill:#ba514f;"/><path d="M566.312,155.859l0,-3.677l-5.883,0l0,4.412l-2.941,0l0,-5.882c0,-0.809 0.662,-1.471 1.47,-1.471l7.354,0l0,-3.676l5.147,5.147l-5.147,5.147Z" style="fill:#fff;"/></g><g id="redux--store" serif:id="redux -store"><path d="M558.751,221.643c0.586,-2.398 2.946,-4.263 5.713,-4.263c2.766,0 5.126,1.865 5.712,4.263c2.24,-1.037 5.169,-0.354 6.894,1.808c1.725,2.163 1.739,5.171 0.229,7.124c2.208,1.105 3.5,3.821 2.885,6.518c-0.616,2.697 -2.959,4.583 -5.427,4.62c0.512,2.415 -0.805,5.119 -3.297,6.319c-2.493,1.2 -5.428,0.544 -6.996,-1.362c-1.569,1.906 -4.504,2.562 -6.996,1.362c-2.493,-1.2 -3.81,-3.904 -3.297,-6.319c-2.469,-0.037 -4.812,-1.923 -5.427,-4.62c-0.616,-2.697 0.677,-5.413 2.884,-6.518c-1.509,-1.953 -1.496,-4.961 0.229,-7.124c1.725,-2.162 4.654,-2.845 6.894,-1.808Z" style="fill:#dcebf2;"/><g id="_-redux" serif:id="©redux"><path d="M568.04,236.501c0.685,-0.071 1.204,-0.661 1.18,-1.369c-0.023,-0.708 -0.613,-1.274 -1.321,-1.274l-0.047,0c-0.732,0.024 -1.298,0.637 -1.274,1.369c0.023,0.353 0.165,0.66 0.377,0.873c-0.802,1.581 -2.029,2.737 -3.87,3.704c-1.25,0.661 -2.548,0.897 -3.846,0.732c-1.062,-0.142 -1.888,-0.614 -2.407,-1.392c-0.755,-1.157 -0.826,-2.407 -0.189,-3.658c0.449,-0.897 1.157,-1.557 1.605,-1.888c-0.094,-0.306 -0.236,-0.825 -0.307,-1.203c-3.421,2.478 -3.067,5.828 -2.029,7.409c0.779,1.18 2.36,1.912 4.106,1.912c0.472,0 0.944,-0.048 1.415,-0.166c3.021,-0.59 5.31,-2.383 6.607,-5.049Z" style="fill:#764abc;"/><path d="M572.193,233.575c-1.793,-2.1 -4.436,-3.257 -7.456,-3.257l-0.378,0c-0.212,-0.424 -0.66,-0.707 -1.156,-0.707l-0.047,0c-0.731,0.023 -1.298,0.637 -1.274,1.368c0.023,0.708 0.613,1.274 1.321,1.274l0.047,0c0.52,-0.023 0.968,-0.354 1.157,-0.802l0.424,0c1.794,0 3.493,0.519 5.026,1.534c1.18,0.779 2.03,1.793 2.502,3.02c0.401,0.991 0.377,1.959 -0.048,2.785c-0.66,1.25 -1.769,1.935 -3.232,1.935c-0.944,0 -1.841,-0.284 -2.313,-0.496c-0.259,0.236 -0.731,0.614 -1.062,0.849c1.015,0.472 2.053,0.732 3.044,0.732c2.266,0 3.941,-1.251 4.578,-2.501c0.684,-1.369 0.637,-3.729 -1.133,-5.734Z" style="fill:#764abc;"/><path d="M560.206,236.902c0.024,0.708 0.614,1.274 1.322,1.274l0.047,0c0.732,-0.023 1.298,-0.637 1.274,-1.368c-0.023,-0.708 -0.613,-1.275 -1.321,-1.275l-0.047,0c-0.048,0 -0.118,0 -0.166,0.024c-0.967,-1.605 -1.368,-3.351 -1.227,-5.239c0.095,-1.415 0.567,-2.642 1.393,-3.657c0.684,-0.873 2.005,-1.298 2.902,-1.321c2.501,-0.048 3.563,3.067 3.634,4.318c0.307,0.071 0.826,0.236 1.18,0.354c-0.283,-3.823 -2.643,-5.805 -4.908,-5.805c-2.124,0 -4.083,1.534 -4.861,3.799c-1.086,3.02 -0.378,5.923 0.944,8.212c-0.118,0.165 -0.189,0.424 -0.166,0.684Z" style="fill:#764abc;"/></g></g><g id="_-redux1" serif:id="©redux"><path d="M444.743,95.119c1.454,-0.151 2.557,-1.404 2.506,-2.908c-0.05,-1.504 -1.303,-2.707 -2.807,-2.707l-0.1,0c-1.554,0.05 -2.757,1.353 -2.707,2.907c0.05,0.752 0.351,1.404 0.802,1.855c-1.705,3.359 -4.311,5.816 -8.222,7.871c-2.657,1.404 -5.414,1.905 -8.171,1.554c-2.256,-0.301 -4.011,-1.303 -5.114,-2.958c-1.604,-2.456 -1.754,-5.113 -0.401,-7.77c0.953,-1.905 2.457,-3.309 3.409,-4.011c-0.2,-0.651 -0.501,-1.754 -0.651,-2.556c-7.269,5.263 -6.517,12.382 -4.312,15.741c1.655,2.506 5.013,4.061 8.723,4.061c1.003,0 2.005,-0.101 3.008,-0.351c6.417,-1.254 11.28,-5.064 14.037,-10.728Z" style="fill:#764abc;"/><path d="M453.566,88.902c-3.81,-4.462 -9.425,-6.918 -15.842,-6.918l-0.802,0c-0.451,-0.902 -1.403,-1.504 -2.456,-1.504l-0.1,0c-1.554,0.05 -2.758,1.354 -2.707,2.908c0.05,1.504 1.303,2.707 2.807,2.707l0.1,0c1.103,-0.05 2.056,-0.752 2.457,-1.705l0.902,0c3.81,0 7.419,1.103 10.678,3.259c2.507,1.654 4.311,3.81 5.314,6.417c0.852,2.105 0.802,4.161 -0.1,5.915c-1.404,2.657 -3.76,4.111 -6.868,4.111c-2.006,0 -3.911,-0.602 -4.913,-1.053c-0.552,0.502 -1.554,1.304 -2.256,1.805c2.156,1.003 4.361,1.554 6.467,1.554c4.812,0 8.372,-2.657 9.725,-5.314c1.454,-2.907 1.354,-7.921 -2.406,-12.182Z" style="fill:#764abc;"/><path d="M428.099,95.971c0.05,1.504 1.304,2.707 2.808,2.707l0.1,0c1.554,-0.05 2.757,-1.354 2.707,-2.908c-0.05,-1.504 -1.303,-2.707 -2.807,-2.707l-0.101,0c-0.1,0 -0.25,0 -0.351,0.05c-2.055,-3.409 -2.907,-7.118 -2.606,-11.129c0.2,-3.008 1.203,-5.615 2.957,-7.77c1.454,-1.855 4.262,-2.758 6.167,-2.808c5.313,-0.1 7.569,6.517 7.72,9.174c0.651,0.151 1.754,0.502 2.506,0.752c-0.601,-8.121 -5.614,-12.332 -10.427,-12.332c-4.512,0 -8.673,3.259 -10.327,8.071c-2.306,6.417 -0.802,12.583 2.005,17.446c-0.25,0.351 -0.401,0.902 -0.351,1.454Z" style="fill:#764abc;"/></g><g id="react-component" serif:id="react component"><path d="M952.196,247.154c3.892,-3.892 3.892,-10.211 0,-14.103l-32.897,-32.897c-3.892,-3.892 -10.211,-3.892 -14.103,0l-32.897,32.897c-3.892,3.892 -3.892,10.211 0,14.103l32.897,32.897c3.892,3.892 10.211,3.892 14.103,0l32.897,-32.897Z" style="fill:#ffe5f2;"/><g id="_-react" serif:id="©react"><circle cx="912.247" cy="240.103" r="4.746" style="fill:#61dafb;"/><ellipse cx="912.247" cy="240.103" rx="25.468" ry="9.724" style="fill:none;stroke:#61dafb;stroke-width:2.32px;"/><path d="M920.669,235.241c7.028,12.173 8.96,24.234 4.312,26.917c-4.648,2.684 -14.127,-5.02 -21.155,-17.193c-7.028,-12.173 -8.96,-24.235 -4.313,-26.918c4.648,-2.683 14.128,5.021 21.156,17.194Z" style="fill:none;stroke:#61dafb;stroke-width:2.32px;"/><path d="M920.669,244.965c-7.028,12.173 -16.508,19.877 -21.156,17.193c-4.647,-2.683 -2.715,-14.744 4.313,-26.917c7.028,-12.173 16.507,-19.877 21.155,-17.194c4.648,2.683 2.716,14.745 -4.312,26.918Z" style="fill:none;stroke:#61dafb;stroke-width:2.32px;"/></g></g><text x="839.821px" y="180.617px" style="font-family:'ArialMT', 'Arial', sans-serif;font-size:20px;fill:#ff0078;">page component</text><text x="9.691px" y="158.007px" style="font-family:'Roboto-Bold', 'Roboto';font-weight:700;font-size:24px;fill:#5498b9;">SER<tspan x="53.039px " y="158.007px ">V</tspan>ER</text><path d="M238.5,149.476l-18,15l0,-30l18,15Z" style="fill:#a0c9dc;"/><path d="M110.5,149.506l120,0" style="fill:none;stroke:#a0c9dc;stroke-width:7px;stroke-linecap:round;stroke-linejoin:round;stroke-miterlimit:1.5;"/><g transform="matrix(1,0,0,1,-1988.32,-1516.95)"><text x="2002.39px" y="1702.65px" style="font-family:'ArialMT', 'Arial', sans-serif;font-size:16px;fill:#4b4b77;">• provide a serverContext</text><text x="2002.39px" y="1726.65px" style="font-family:'ArialMT', 'Arial', sans-serif;font-size:16px;fill:#4b4b77;">• this allow us to give the</text><text x="2014.39px" y="1750.65px" style="font-family:'ArialMT', 'Arial', sans-serif;font-size:16px;fill:#4b4b77;">right HTTP<tspan x="2091.44px 2095.89px " y="1750.65px 1750.65px "> c</tspan>ode</text></g><text x="9.492px" y="275.286px" style="font-family:'Roboto-Bold', 'Roboto';font-weight:700;font-size:24px;fill:#7e6ed6;">CLIEN<tspan x="75.293px " y="275.286px ">T</tspan></text><path d="M238.5,266.754l-18,15l0,-30l18,15Z" style="fill:#b5ace7;"/><path d="M110.5,266.784l120,0" style="fill:none;stroke:#b5ace7;stroke-width:7px;stroke-linecap:round;stroke-linejoin:round;stroke-miterlimit:1.5;"/><path d="M755.741,239.797l18,-15l0,30l-18,-15Z" style="fill:#8a8aa6;"/><path d="M857.729,239.767l-92.988,0" style="fill:none;stroke:#8a8aa7;stroke-width:7px;stroke-linecap:round;stroke-linejoin:round;stroke-miterlimit:1.5;"/><text x="655.736px" y="202.253px" style="font-family:'Roboto-Bold', 'Roboto';font-weight:700;font-size:31.724px;fill:#ff0078;">OR</text><text x="615.117px" y="93.621px" style="font-family:'Roboto-Regular', 'Roboto';font-size:16px;">contr<tspan x="651.929px " y="93.621px ">o</tspan>l st<tspan x="682.218px 691.343px 696.609px " y="93.621px 93.621px 93.621px ">ore</tspan> and:</text><defs><linearGradient id="_Linear1" x1="0" y1="0" x2="1" y2="0" gradientUnits="userSpaceOnUse" gradientTransform="matrix(72.3162,4.0971e-14,4.0971e-14,-72.3162,436.241,148.726)"><stop offset="0" style="stop-color:#ffe5f2;stop-opacity:1"/><stop offset="1" style="stop-color:#ffbfdd;stop-opacity:1"/></linearGradient><linearGradient id="_Linear2" x1="0" y1="0" x2="1" y2="0" gradientUnits="userSpaceOnUse" gradientTransform="matrix(72.3162,4.0971e-14,4.0971e-14,-72.3162,279.449,148.726)"><stop offset="0" style="stop-color:#ffe5f2;stop-opacity:1"/><stop offset="1" style="stop-color:#ffbfdd;stop-opacity:1"/></linearGradient><linearGradient id="_Linear3" x1="0" y1="0" x2="1" y2="0" gradientUnits="userSpaceOnUse" gradientTransform="matrix(72.3162,4.0971e-14,4.0971e-14,-72.3162,436.241,229.891)"><stop offset="0" style="stop-color:#ffe5f2;stop-opacity:1"/><stop offset="1" style="stop-color:#ffbfdd;stop-opacity:1"/></linearGradient></defs></svg>