<?xml version="1.0" encoding="UTF-8" standalone="no"?><!DOCTYPE svg PUBLIC "-//W3C//DTD SVG 1.1//EN" "http://www.w3.org/Graphics/SVG/1.1/DTD/svg11.dtd"><svg width="100%" height="100%" viewBox="0 0 1020 520" version="1.1" xmlns="http://www.w3.org/2000/svg" xmlns:xlink="http://www.w3.org/1999/xlink" xml:space="preserve" xmlns:serif="http://www.serif.com/" style="fill-rule:evenodd;clip-rule:evenodd;"><rect id="server-rendering" x="0" y="0" width="1020" height="520" style="fill:none;"/><g id="react-component" serif:id="react component"><g opacity="0.25"><path d="M602.948,121.052c3.892,-3.892 3.892,-10.212 0,-14.104l-32.896,-32.896c-3.892,-3.892 -10.212,-3.892 -14.104,0l-32.896,32.896c-3.892,3.892 -3.892,10.212 0,14.104l32.896,32.896c3.892,3.892 10.212,3.892 14.104,0l32.896,-32.896Z" style="fill:#ffe5f2;"/><g id="_-react" serif:id="©react"><circle cx="563" cy="114" r="4.746" style="fill:#61dafb;"/><ellipse cx="563" cy="114" rx="25.468" ry="9.724" style="fill:none;stroke:#61dafb;stroke-width:2.32px;"/><path d="M571.421,109.138c7.028,12.173 8.961,24.234 4.313,26.918c-4.648,2.683 -14.127,-5.021 -21.155,-17.194c-7.028,-12.173 -8.961,-24.234 -4.313,-26.918c4.648,-2.683 14.127,5.021 21.155,17.194Z" style="fill:none;stroke:#61dafb;stroke-width:2.32px;"/><path d="M571.421,118.862c-7.028,12.173 -16.507,19.877 -21.155,17.194c-4.648,-2.684 -2.715,-14.745 4.313,-26.918c7.028,-12.173 16.507,-19.877 21.155,-17.194c4.648,2.684 2.715,14.745 -4.313,26.918Z" style="fill:none;stroke:#61dafb;stroke-width:2.32px;"/></g></g></g><g id="file-shared"><path d="M405.157,73.134c0,-5.523 -4.484,-10.007 -10.007,-10.007l-59.986,0c-5.523,0 -10.007,4.484 -10.007,10.007l0,79.986c0,5.523 4.484,10.007 10.007,10.007l59.986,0c5.523,0 10.007,-4.484 10.007,-10.007l0,-79.986Z" style="fill:#ffe5f2;"/><path d="M340.157,83.127l50,0" style="fill:none;stroke:#ffbfdd;stroke-width:7px;stroke-linecap:round;stroke-linejoin:round;stroke-miterlimit:1.5;"/><path d="M340.157,103.127l50,0" style="fill:none;stroke:#ffbfdd;stroke-width:7px;stroke-linecap:round;stroke-linejoin:round;stroke-miterlimit:1.5;"/><path d="M340.157,123.127l30,0" style="fill:none;stroke:#ffbfdd;stroke-width:7px;stroke-linecap:round;stroke-linejoin:round;stroke-miterlimit:1.5;"/></g><text x="327.1px" y="41.864px" style="font-family:'ArialMT', 'Arial', sans-serif;font-size:20px;fill:#ff0078;">routes.js</text><text x="150.029px" y="41.864px" style="font-family:'ArialMT', 'Arial', sans-serif;font-size:20px;fill:#ff0078;">react router</text><g id="reduz--store" serif:id="reduz -store"><path d="M62.448,374.873c1.453,-5.95 7.308,-10.575 14.17,-10.575c6.863,0 12.717,4.625 14.171,10.575c5.557,-2.573 12.824,-0.88 17.102,4.486c4.279,5.365 4.313,12.826 0.568,17.672c5.477,2.741 8.683,9.478 7.156,16.168c-1.527,6.691 -7.339,11.369 -13.462,11.462c1.271,5.991 -1.996,12.698 -8.179,15.676c-6.183,2.978 -13.465,1.351 -17.356,-3.379c-3.891,4.73 -11.172,6.357 -17.355,3.379c-6.183,-2.978 -9.451,-9.685 -8.179,-15.676c-6.124,-0.093 -11.936,-4.771 -13.463,-11.462c-1.527,-6.69 1.68,-13.427 7.156,-16.168c-3.745,-4.846 -3.711,-12.307 0.568,-17.672c4.279,-5.366 11.545,-7.059 17.103,-4.486Z" style="fill:#ededef;"/><g id="_-redux" serif:id="©redux"><path d="M85.491,411.731c1.698,-0.176 2.986,-1.639 2.927,-3.395c-0.058,-1.756 -1.522,-3.161 -3.278,-3.161l-0.117,0c-1.815,0.058 -3.22,1.58 -3.161,3.395c0.059,0.878 0.41,1.639 0.937,2.166c-1.991,3.922 -5.035,6.79 -9.6,9.19c-3.103,1.639 -6.322,2.224 -9.542,1.815c-2.634,-0.352 -4.683,-1.522 -5.971,-3.454c-1.873,-2.868 -2.049,-5.971 -0.468,-9.073c1.112,-2.225 2.868,-3.864 3.98,-4.683c-0.234,-0.761 -0.585,-2.049 -0.761,-2.986c-8.487,6.147 -7.609,14.459 -5.034,18.381c1.932,2.927 5.854,4.741 10.186,4.741c1.17,0 2.341,-0.117 3.512,-0.409c7.493,-1.464 13.171,-5.913 16.39,-12.527Z" style="fill:#764abc;fill-rule:nonzero;"/><path d="M95.794,404.472c-4.449,-5.21 -11.005,-8.078 -18.498,-8.078l-0.936,0c-0.527,-1.054 -1.639,-1.756 -2.869,-1.756l-0.117,0c-1.814,0.059 -3.219,1.58 -3.161,3.395c0.059,1.756 1.522,3.161 3.278,3.161l0.117,0c1.288,-0.058 2.4,-0.878 2.869,-1.99l1.053,0c4.449,0 8.664,1.288 12.469,3.805c2.926,1.932 5.034,4.449 6.205,7.493c0.995,2.458 0.936,4.858 -0.118,6.907c-1.639,3.102 -4.39,4.8 -8.019,4.8c-2.342,0 -4.566,-0.703 -5.737,-1.229c-0.644,0.585 -1.814,1.522 -2.634,2.107c2.517,1.171 5.093,1.815 7.551,1.815c5.62,0 9.776,-3.103 11.357,-6.205c1.697,-3.395 1.58,-9.249 -2.81,-14.225Z" style="fill:#764abc;fill-rule:nonzero;"/><path d="M66.057,412.726c0.059,1.756 1.522,3.161 3.278,3.161l0.117,0c1.815,-0.059 3.22,-1.581 3.161,-3.395c-0.058,-1.756 -1.522,-3.161 -3.278,-3.161l-0.117,0c-0.117,0 -0.293,0 -0.41,0.058c-2.4,-3.98 -3.395,-8.312 -3.044,-12.995c0.235,-3.512 1.405,-6.556 3.454,-9.073c1.698,-2.166 4.976,-3.22 7.2,-3.278c6.205,-0.117 8.839,7.61 9.015,10.712c0.761,0.176 2.049,0.585 2.927,0.878c-0.703,-9.483 -6.557,-14.4 -12.176,-14.4c-5.268,0 -10.127,3.805 -12.059,9.424c-2.692,7.493 -0.936,14.693 2.342,20.371c-0.293,0.41 -0.468,1.054 -0.41,1.698Z" style="fill:#764abc;fill-rule:nonzero;"/></g></g><g id="reduz--store1" serif:id="reduz -store"><path d="M523.82,374.873c1.453,-5.95 7.308,-10.575 14.17,-10.575c6.863,0 12.717,4.625 14.171,10.575c5.557,-2.573 12.824,-0.88 17.103,4.486c4.278,5.365 4.312,12.826 0.567,17.672c5.477,2.741 8.683,9.478 7.156,16.168c-1.527,6.691 -7.339,11.369 -13.462,11.462c1.271,5.991 -1.996,12.698 -8.179,15.676c-6.183,2.978 -13.465,1.351 -17.356,-3.379c-3.891,4.73 -11.172,6.357 -17.355,3.379c-6.183,-2.978 -9.451,-9.685 -8.179,-15.676c-6.124,-0.093 -11.936,-4.771 -13.463,-11.462c-1.527,-6.69 1.68,-13.427 7.156,-16.168c-3.745,-4.846 -3.711,-12.307 0.568,-17.672c4.279,-5.366 11.545,-7.059 17.103,-4.486Z" style="fill:#dcebf2;"/><g id="_-redux1" serif:id="©redux"><path d="M546.863,411.731c1.698,-0.176 2.986,-1.639 2.927,-3.395c-0.058,-1.756 -1.522,-3.161 -3.278,-3.161l-0.117,0c-1.815,0.058 -3.219,1.58 -3.161,3.395c0.059,0.878 0.41,1.639 0.937,2.166c-1.991,3.922 -5.034,6.79 -9.6,9.19c-3.103,1.639 -6.322,2.224 -9.542,1.815c-2.634,-0.352 -4.683,-1.522 -5.971,-3.454c-1.873,-2.868 -2.048,-5.971 -0.468,-9.073c1.112,-2.225 2.868,-3.864 3.981,-4.683c-0.235,-0.761 -0.586,-2.049 -0.761,-2.986c-8.488,6.147 -7.61,14.459 -5.035,18.381c1.932,2.927 5.854,4.741 10.186,4.741c1.171,0 2.341,-0.117 3.512,-0.409c7.493,-1.464 13.171,-5.913 16.39,-12.527Z" style="fill:#764abc;fill-rule:nonzero;"/><path d="M557.166,404.472c-4.449,-5.21 -11.005,-8.078 -18.498,-8.078l-0.936,0c-0.527,-1.054 -1.639,-1.756 -2.869,-1.756l-0.117,0c-1.814,0.059 -3.219,1.58 -3.161,3.395c0.059,1.756 1.522,3.161 3.278,3.161l0.117,0c1.288,-0.058 2.4,-0.878 2.869,-1.99l1.053,0c4.449,0 8.664,1.288 12.469,3.805c2.927,1.932 5.034,4.449 6.205,7.493c0.995,2.458 0.936,4.858 -0.117,6.907c-1.639,3.102 -4.391,4.8 -8.02,4.8c-2.341,0 -4.566,-0.703 -5.737,-1.229c-0.644,0.585 -1.814,1.522 -2.634,2.107c2.517,1.171 5.093,1.815 7.552,1.815c5.619,0 9.775,-3.103 11.356,-6.205c1.697,-3.395 1.58,-9.249 -2.81,-14.225Z" style="fill:#764abc;fill-rule:nonzero;"/><path d="M527.429,412.726c0.059,1.756 1.522,3.161 3.278,3.161l0.117,0c1.815,-0.059 3.22,-1.581 3.161,-3.395c-0.058,-1.756 -1.522,-3.161 -3.278,-3.161l-0.117,0c-0.117,0 -0.293,0 -0.41,0.058c-2.4,-3.98 -3.395,-8.312 -3.044,-12.995c0.235,-3.512 1.405,-6.556 3.454,-9.073c1.698,-2.166 4.976,-3.22 7.2,-3.278c6.205,-0.117 8.839,7.61 9.015,10.712c0.761,0.176 2.049,0.585 2.927,0.878c-0.703,-9.483 -6.556,-14.4 -12.176,-14.4c-5.268,0 -10.127,3.805 -12.059,9.424c-2.692,7.493 -0.936,14.693 2.342,20.371c-0.293,0.41 -0.468,1.054 -0.41,1.698Z" style="fill:#764abc;fill-rule:nonzero;"/></g></g><g id="react-component1" serif:id="react component"><path d="M566.941,121.052c3.892,-3.892 3.892,-10.212 0,-14.104l-32.896,-32.896c-3.892,-3.892 -10.212,-3.892 -14.104,0l-32.896,32.896c-3.892,3.892 -3.892,10.212 0,14.104l32.896,32.896c3.892,3.892 10.212,3.892 14.104,0l32.896,-32.896Z" style="fill:#ffe5f2;"/><g id="_-react1" serif:id="©react"><circle cx="526.993" cy="114" r="4.746" style="fill:#61dafb;"/><ellipse cx="526.993" cy="114" rx="25.468" ry="9.724" style="fill:none;stroke:#61dafb;stroke-width:2.32px;"/><path d="M535.414,109.138c7.028,12.173 8.961,24.234 4.313,26.918c-4.648,2.683 -14.127,-5.021 -21.155,-17.194c-7.028,-12.173 -8.961,-24.234 -4.313,-26.918c4.648,-2.683 14.127,5.021 21.155,17.194Z" style="fill:none;stroke:#61dafb;stroke-width:2.32px;"/><path d="M535.414,118.862c-7.028,12.173 -16.507,19.877 -21.155,17.194c-4.648,-2.684 -2.715,-14.745 4.313,-26.918c7.028,-12.173 16.507,-19.877 21.155,-17.194c4.648,2.684 2.715,14.745 -4.313,26.918Z" style="fill:none;stroke:#61dafb;stroke-width:2.32px;"/></g></g><g transform="matrix(1,0,0,1,-1229.77,-57.349)"><text x="1279.26px" y="525.426px" style="font-family:'ArialMT', 'Arial', sans-serif;font-size:20px;fill:#445;">empty</text><text x="1256.47px" y="549.426px" style="font-family:'ArialMT', 'Arial', sans-serif;font-size:20px;fill:#445;">redux store</text></g><text x="141.424px" y="263.514px" style="font-family:'ArialMT', 'Arial', sans-serif;font-size:20px;fill:#ff7d00;">cookie</text><text x="483.478px" y="39.994px" style="font-family:'ArialMT', 'Arial', sans-serif;font-size:20px;fill:#ff0078;">components</text><path d="M31.141,135.119l0,-43.983l67.06,0l0,-13.009l35,35l-35,35l0,-13.008l-67.06,0Z" style="fill:#ddebf3;"/><g><path d="M880.87,280.653l0,-43.983l96.865,0l0,-13.009l35,35l-35,35l0,-13.008l-96.865,0Z" style="fill:#dcebf2;"/><text x="895.36px" y="265.52px" style="font-family:'ArialMT', 'Arial', sans-serif;font-size:16px;">T<tspan x="904.845px 917.29px " y="265.52px 265.52px ">O </tspan>CLIENT</text></g><text x="48.419px" y="119.986px" style="font-family:'ArialMT', 'Arial', sans-serif;font-size:16px;">ROUTE</text><g><circle cx="201.426" cy="113.127" r="51.03" style="fill:#ffe5f2;"/><g id="_-react-router" serif:id="©react-router"><path d="M200.038,95.408c-0.763,0.182 -1.926,0.909 -2.616,1.599c-1.127,1.163 -1.345,1.672 -1.817,4.034c-0.218,1.162 1.126,3.924 2.326,4.76c1.235,0.872 2.979,1.38 5.668,1.671c3.924,0.436 5.051,1.744 5.051,6.032c0,3.779 -1.054,4.796 -5.378,5.233c-4.687,0.472 -7.086,2.289 -7.594,5.813c-0.291,2.144 1.126,4.833 3.088,5.742c4.47,2.107 8.648,-0.545 9.521,-6.032c0.581,-3.525 1.707,-4.506 5.486,-4.797c4.361,-0.363 6.614,-1.853 7.449,-4.905c0.763,-2.798 -0.835,-5.923 -3.561,-7.013c-0.726,-0.291 -2.398,-0.654 -3.706,-0.8c-4.106,-0.436 -5.16,-1.162 -5.596,-3.815c-0.618,-3.67 -0.872,-4.288 -2.18,-5.741c-1.526,-1.708 -3.852,-2.398 -6.141,-1.781Z" style="fill:#ba514f;fill-rule:nonzero;"/><path d="M173.04,119.282c-5.923,1.308 -6.141,9.956 -0.291,11.482c1.454,0.4 1.599,0.4 3.053,0.036c3.27,-0.872 5.123,-3.997 4.251,-7.158c-0.872,-3.198 -3.852,-5.051 -7.013,-4.36Zm53.451,0.327c-3.815,1.308 -5.123,5.741 -2.689,9.156c1.526,2.181 5.378,2.907 7.74,1.418c3.888,-2.399 3.743,-8.394 -0.254,-10.284c-1.854,-0.908 -2.871,-0.944 -4.797,-0.29Zm-39.243,-12.319c-4.034,0.873 -5.96,5.633 -3.707,9.048c3.234,4.869 10.829,2.617 10.901,-3.234c0.037,-3.742 -3.524,-6.613 -7.194,-5.814Z" style="fill:#252525;fill-rule:nonzero;"/></g></g><path d="M311.114,114.255l-18,15l0,-30l18,15Z" style="fill:#ffbfdd;"/><path d="M470.216,114.255l-18,15l0,-30l18,15Z" style="fill:#ffbfdd;"/><path d="M493.259,403.067l-18,15l0,-30l18,15Z" style="fill:#a0c9dc;"/><path d="M94.96,301l-18,15l0,-30l18,15Z" style="fill:#ddebf3;"/><path d="M94.96,256.753l-18,15l0,-30l18,15Z" style="fill:#ddebf3;"/><path d="M260.098,114.285l40,0" style="fill:none;stroke:#ffbfdd;stroke-width:7px;stroke-linecap:round;stroke-linejoin:round;stroke-miterlimit:1.5;"/><path d="M419.2,114.285l40,0" style="fill:none;stroke:#ffbfdd;stroke-width:7px;stroke-linecap:round;stroke-linejoin:round;stroke-miterlimit:1.5;"/><path d="M130.319,403.097l353.94,0" style="fill:none;stroke:#a0c9dc;stroke-width:7px;stroke-linecap:round;stroke-linejoin:round;stroke-miterlimit:1.5;"/><g transform="matrix(1,0,0,1,-1380,-962.679)"><text x="1795.9px" y="1143.03px" style="font-family:'ArialMT', 'Arial', sans-serif;font-size:20px;">expose</text><text x="1865.95px" y="1143.03px" style="font-family:'Menlo-Bold', 'Menlo', monospace;font-weight:700;font-size:20px;">redux actions</text><text x="2028.04px" y="1143.03px" style="font-family:'ArialMT', 'Arial', sans-serif;font-size:20px;">in</text><text x="1791.27px" y="1167.03px" style="font-family:'Menlo-Bold', 'Menlo', monospace;font-weight:700;font-size:20px;">fetchData()</text><text x="1929.28px" y="1167.03px" style="font-family:'ArialMT', 'Arial', sans-serif;font-size:20px;">static method</text></g><g transform="matrix(1,0,0,1,-1380,-674.627)"><text x="1883.6px" y="1143.03px" style="font-family:'ArialMT', 'Arial', sans-serif;font-size:20px;">updated</text><text x="1869.73px" y="1167.03px" style="font-family:'ArialMT', 'Arial', sans-serif;font-size:20px;">redux store</text></g><text x="701.081px" y="341.403px" style="font-family:'Menlo-Bold', 'Menlo', monospace;font-weight:700;font-size:20px;">renderToString()</text><path d="M537.96,355.226l15,-18l-30,0l15,18Z" style="fill:#a0c9dc;"/><path d="M726,258.928l-18,-15l0,30l18,-15Z" style="fill:#a0c9dc;"/><path d="M537.99,213.641l0,132.585" style="fill:none;stroke:#a0c9dc;stroke-width:7px;stroke-linecap:round;stroke-linejoin:round;stroke-miterlimit:1.5;"/><g id="_-react2" serif:id="©react"><circle cx="796.96" cy="258.661" r="9.124" style="fill:#61dafb;"/><ellipse cx="796.96" cy="258.661" rx="48.96" ry="18.694" style="fill:none;stroke:#61dafb;stroke-width:4.45px;"/><path d="M813.149,249.314c13.511,23.402 17.226,46.589 8.291,51.748c-8.935,5.159 -27.158,-9.652 -40.669,-33.054c-13.511,-23.401 -17.226,-46.589 -8.291,-51.747c8.935,-5.159 27.158,9.652 40.669,33.053Z" style="fill:none;stroke:#61dafb;stroke-width:4.45px;"/><path d="M813.149,268.008c-13.511,23.402 -31.734,38.213 -40.669,33.054c-8.935,-5.159 -5.22,-28.346 8.291,-51.748c13.511,-23.401 31.734,-38.212 40.669,-33.053c8.935,5.158 5.22,28.346 -8.291,51.747Z" style="fill:none;stroke:#61dafb;stroke-width:4.45px;"/></g><g id="cookie"><circle cx="115.228" cy="256.753" r="16" style="fill:#ff7d00;"/><text x="106.217px" y="265.886px" style="font-family:'Arial-BoldMT', 'Arial', sans-serif;font-weight:700;font-size:25.092px;fill:#ffecd9;">C</text></g><g id="route-params"><circle cx="115.228" cy="301" r="16" style="fill:#82b7d1;"/><text x="104.486px" y="306.919px" style="font-family:'ArialMT', 'Arial', sans-serif;font-size:20px;fill:#ecf4f8;">:id</text></g><g id="route-params1" serif:id="route-params"><circle cx="537.99" cy="301" r="16" style="fill:#82b7d1;"/><text x="527.248px" y="306.919px" style="font-family:'ArialMT', 'Arial', sans-serif;font-size:20px;fill:#ecf4f8;">:id</text></g><g id="jwt"><circle cx="537.99" cy="258.661" r="16" style="fill:#528cff;"/><text x="523.754px" y="263.259px" style="font-family:'Roboto-Bold', 'Roboto';font-weight:700;font-size:13.016px;fill:#f2ffe5;">JWT</text></g><path d="M518.7,258.928l-9,-7.5l0,15l9,-7.5Z" style="fill:#528cff;"/><path d="M518.7,299.516l-9,-7.5l0,15l9,-7.5Z" style="fill:#a0c9dc;"/><path d="M211,258.928l299.984,0" style="fill:none;stroke:url(#_Linear1);stroke-width:3px;stroke-linecap:round;stroke-linejoin:round;stroke-miterlimit:1.5;"/><path d="M260.098,299.516l249.602,0" style="fill:none;stroke:#a0c9dc;stroke-width:3px;stroke-linecap:round;stroke-linejoin:round;stroke-miterlimit:1.5;"/><path d="M47.141,132.428l0,168.572l38.715,0" style="fill:none;stroke:#ddebf3;stroke-width:7px;stroke-linejoin:round;stroke-miterlimit:1.41421;"/><text x="135.508px" y="306.01px" style="font-family:'ArialMT', 'Arial', sans-serif;font-size:20px;fill:#5498b9;">route params</text><path d="M48,256.473l34.171,0" style="fill:none;stroke:#ddebf3;stroke-width:7px;stroke-linejoin:round;stroke-miterlimit:1.41421;"/><text x="253.682px" y="284.791px" style="font-family:'ArialMT', 'Arial', sans-serif;font-size:20px;">needed by actions with fetch</text><path d="M621,114.285l61,0l0,144.376l35,0" style="fill:none;stroke:#a0c9dc;stroke-width:7px;stroke-linecap:round;stroke-linejoin:round;stroke-miterlimit:1.5;"/><path d="M588.941,403.037l93.059,0l0,-144.376l35,0" style="fill:none;stroke:#a0c9dc;stroke-width:7px;stroke-linecap:round;stroke-linejoin:round;stroke-miterlimit:1.5;"/><defs><linearGradient id="_Linear1" x1="0" y1="0" x2="1" y2="0" gradientUnits="userSpaceOnUse" gradientTransform="matrix(257.237,0,0,2e-06,199.973,258.928)"><stop offset="0" style="stop-color:#ffa44d;stop-opacity:1"/><stop offset="1" style="stop-color:#528cff;stop-opacity:1"/></linearGradient></defs></svg>