<?xml version="1.0" encoding="UTF-8" standalone="no"?><!DOCTYPE svg PUBLIC "-//W3C//DTD SVG 1.1//EN" "http://www.w3.org/Graphics/SVG/1.1/DTD/svg11.dtd"><svg width="32px" height="32px" viewBox="0 0 32 33" version="1.1" xmlns="http://www.w3.org/2000/svg" xmlns:xlink="http://www.w3.org/1999/xlink" xml:space="preserve" xmlns:serif="http://www.serif.com/" style="fill-rule:evenodd;clip-rule:evenodd;stroke-linejoin:round;stroke-miterlimit:1.41421;"><rect id="paper-part-middle" x="0" y="0.951" width="32" height="32" style="fill:none;"/><path d="M32,8.951l0,16l-8,8l-8,-8l-8,8l-8,-8l0,-16l8,-8l8,8l8,-8l8,8Zm-31,0.414l0,15.172l7,7l7.293,-7.293l0.084,-0.075l0.091,-0.065l0.098,-0.054l0.104,-0.043l0.107,-0.031l0.111,-0.019l0.112,-0.006l0.112,0.006l0.111,0.019l0.107,0.031l0.104,0.043l0.098,0.054l0.091,0.065l0.084,0.075l7.293,7.293l7,-7l0,-15.172l-7,-7l-7.293,7.293l-0.084,0.075l-0.091,0.065l-0.098,0.054l-0.104,0.043l-0.107,0.031l-0.111,0.019l-0.112,0.006l-0.112,-0.006l-0.111,-0.019l-0.107,-0.031l-0.104,-0.043l-0.098,-0.054l-0.091,-0.065l-0.084,-0.075l-7.293,-7.293l-7,7Z" style="fill:#dedbf0;"/></svg>
