<?xml version="1.0" encoding="UTF-8" standalone="no"?><!DOCTYPE svg PUBLIC "-//W3C//DTD SVG 1.1//EN" "http://www.w3.org/Graphics/SVG/1.1/DTD/svg11.dtd"><svg width="32px" height="32px" viewBox="0 0 32 32" xmlns="http://www.w3.org/2000/svg" style="fill-rule:evenodd;clip-rule:evenodd;stroke-linejoin:round;stroke-miterlimit:1.41421;"><path d="M8,0l-8,8l8,8l-8,8l8.27,8l7.73,-8l8,8l8,-8l0,-16l0,-0.052c-0.028,-4.391 -3.602,-7.948 -8,-7.948l-16,0Z" style="fill:#fff;"/><path d="M24.103,0.001l0.103,0.002l0.102,0.003l0.102,0.004l0.101,0.006l0.102,0.007l0.101,0.008l0.1,0.01l0.101,0.011l0.099,0.012l0.1,0.013l0.099,0.015l0.099,0.015l0.098,0.017l0.098,0.018l0.097,0.019l0.097,0.021l0.097,0.021l0.096,0.023l0.096,0.024l0.095,0.025l0.095,0.026l0.094,0.028l0.094,0.028l0.093,0.03l0.093,0.03l0.093,0.032l0.091,0.033l0.092,0.034l0.091,0.035l0.09,0.036l0.09,0.037l0.089,0.039l0.088,0.039l0.088,0.04l0.088,0.041l0.087,0.043l0.086,0.043l0.086,0.045l0.085,0.045l0.084,0.046l0.084,0.048l0.083,0.048l0.083,0.049l0.082,0.051l0.081,0.051l0.081,0.052l0.08,0.053l0.079,0.054l0.078,0.055l0.078,0.056l0.078,0.057l0.076,0.057l0.076,0.059l0.075,0.059l0.074,0.06l0.074,0.062l0.073,0.062l0.072,0.062l0.071,0.064l0.071,0.065l0.07,0.065l0.069,0.066l0.068,0.067l0.067,0.068l0.067,0.069l0.066,0.069l0.065,0.07l0.064,0.071l0.063,0.072l0.062,0.072l0.062,0.074l0.061,0.074l0.06,0.074l0.059,0.076l0.058,0.076l0.057,0.077l0.056,0.077l0.056,0.079l0.054,0.079l0.054,0.079l0.052,0.08l0.052,0.081l0.051,0.082l0.049,0.082l0.049,0.083l0.048,0.084l0.047,0.084l0.046,0.085l0.045,0.085l0.044,0.086l0.042,0.087l0.042,0.087l0.041,0.087l0.04,0.089l0.039,0.089l0.037,0.089l0.037,0.09l0.036,0.091l0.034,0.091l0.033,0.091l0.033,0.092l0.031,0.093l0.03,0.093l0.029,0.094l0.028,0.094l0.027,0.094l0.025,0.095l0.025,0.096l0.023,0.096l0.022,0.096l0.021,0.097l0.02,0.097l0.019,0.098l0.017,0.098l0.017,0.098l0.015,0.099l0.014,0.1l0.012,0.099l0.012,0.1l0.01,0.101l0.009,0.101l0.008,0.101l0.006,0.101l0.005,0.102l0.004,0.102l0.003,0.103l0.001,0.102l0,0.052l0,16l-8,8l-8,-8l-7.73,8l-8.27,-8l8,-8l-8,-8l8,-8l16,0l0.103,0.001Zm-15.689,0.999l-7,7l7.293,7.293l0.075,0.084l0.065,0.091l0.054,0.098l0.043,0.104l0.031,0.107l0.019,0.111l0.006,0.112l-0.006,0.112l-0.019,0.111l-0.031,0.107l-0.043,0.104l-0.054,0.098l-0.065,0.091l-0.075,0.084l-7.281,7.281l6.82,6.598l7.035,-7.281l0.077,-0.072l0.085,-0.063l0.091,-0.055l0.096,-0.044l0.1,-0.034l0.103,-0.023l0.106,-0.012l0.105,-0.001l0.106,0.01l0.103,0.022l0.101,0.032l0.097,0.042l0.092,0.053l0.085,0.062l0.079,0.071l7.293,7.293l7,-7l0,-15.584l0,-0.046l-0.001,-0.092l-0.003,-0.089l-0.003,-0.09l-0.004,-0.089l-0.006,-0.089l-0.007,-0.089l-0.008,-0.088l-0.009,-0.088l-0.01,-0.087l-0.011,-0.087l-0.012,-0.087l-0.013,-0.087l-0.014,-0.086l-0.015,-0.086l-0.017,-0.085l-0.017,-0.085l-0.018,-0.085l-0.02,-0.084l-0.02,-0.084l-0.022,-0.083l-0.022,-0.083l-0.023,-0.083l-0.025,-0.082l-0.025,-0.082l-0.027,-0.081l-0.027,-0.081l-0.028,-0.081l-0.029,-0.08l-0.03,-0.079l-0.032,-0.079l-0.032,-0.079l-0.033,-0.078l-0.033,-0.078l-0.035,-0.077l-0.036,-0.077l-0.036,-0.076l-0.038,-0.076l-0.038,-0.075l-0.04,-0.075l-0.04,-0.074l-0.041,-0.074l-0.042,-0.073l-0.042,-0.072l-0.044,-0.072l-0.044,-0.072l-0.045,-0.07l-0.047,-0.071l-0.046,-0.069l-0.048,-0.07l-0.049,-0.068l-0.049,-0.068l-0.05,-0.067l-0.051,-0.067l-0.051,-0.066l-0.053,-0.065l-0.053,-0.065l-0.054,-0.064l-0.055,-0.064l-0.055,-0.063l-0.056,-0.062l-0.057,-0.061l-0.058,-0.061l-0.058,-0.06l-0.059,-0.059l-0.06,-0.059l-0.06,-0.058l-0.062,-0.057l-0.061,-0.057l-0.063,-0.056l-0.063,-0.055l-0.064,-0.054l-0.064,-0.054l-0.065,-0.053l-0.066,-0.052l-0.066,-0.051l-0.067,-0.05l-0.068,-0.05l-0.068,-0.049l-0.069,-0.048l-0.069,-0.047l-0.07,-0.047l-0.071,-0.045l-0.071,-0.045l-0.072,-0.044l-0.072,-0.043l-0.073,-0.043l-0.073,-0.041l-0.074,-0.041l-0.075,-0.039l-0.075,-0.039l-0.075,-0.038l-0.076,-0.037l-0.077,-0.036l-0.076,-0.035l-0.078,-0.035l-0.078,-0.033l-0.078,-0.033l-0.079,-0.031l-0.08,-0.031l-0.079,-0.029l-0.081,-0.029l-0.08,-0.028l-0.081,-0.027l-0.082,-0.026l-0.082,-0.025l-0.083,-0.023l-0.082,-0.023l-0.084,-0.022l-0.083,-0.021l-0.084,-0.02l-0.085,-0.019l-0.085,-0.018l-0.085,-0.017l-0.085,-0.015l-0.086,-0.015l-0.087,-0.014l-0.086,-0.013l-0.087,-0.011l-0.088,-0.011l-0.087,-0.009l-0.089,-0.008l-0.088,-0.008l-0.089,-0.006l-0.089,-0.005l-0.089,-0.004l-0.09,-0.003l-0.09,-0.001l-0.093,-0.001l-15.583,0Z" style="fill:#dedbf0;"/></svg>