<?xml version="1.0" encoding="UTF-8" standalone="no"?><!DOCTYPE svg PUBLIC "-//W3C//DTD SVG 1.1//EN" "http://www.w3.org/Graphics/SVG/1.1/DTD/svg11.dtd"><svg width="100%" height="100%" viewBox="0 0 32 32" version="1.1" xmlns="http://www.w3.org/2000/svg" xmlns:xlink="http://www.w3.org/1999/xlink" xml:space="preserve" xmlns:serif="http://www.serif.com/" style="fill-rule:evenodd;clip-rule:evenodd;stroke-linejoin:round;stroke-miterlimit:1.41421;"><rect id="bottom" x="0" y="0" width="32" height="32" style="fill:none;"/><clipPath id="_clip1"><rect x="0" y="0" width="32" height="32"/></clipPath><g clip-path="url(#_clip1)"><path d="M7.948,32c-4.391,-0.028 -7.948,-3.602 -7.948,-8l0,-15.73l0,-0.27l8,-8l8,8l8,-8l8,8l0,16c0,4.398 -3.557,7.972 -7.948,8l-0.052,0l-16,0l-0.052,0Z" style="fill:#fff;"/><path d="M32,8l0,16l-0.001,0.103l-0.002,0.103l-0.003,0.102l-0.004,0.102l-0.006,0.101l-0.007,0.102l-0.008,0.101l-0.01,0.1l-0.011,0.101l-0.012,0.099l-0.013,0.1l-0.015,0.099l-0.015,0.099l-0.017,0.098l-0.018,0.098l-0.019,0.097l-0.021,0.097l-0.021,0.097l-0.023,0.096l-0.024,0.096l-0.025,0.095l-0.026,0.095l-0.028,0.094l-0.028,0.094l-0.03,0.093l-0.03,0.093l-0.032,0.093l-0.033,0.091l-0.034,0.092l-0.035,0.091l-0.036,0.09l-0.037,0.09l-0.039,0.089l-0.039,0.088l-0.04,0.088l-0.042,0.088l-0.042,0.087l-0.043,0.086l-0.045,0.086l-0.045,0.085l-0.046,0.084l-0.048,0.084l-0.048,0.083l-0.049,0.083l-0.051,0.082l-0.051,0.081l-0.052,0.081l-0.053,0.08l-0.054,0.079l-0.055,0.079l-0.056,0.077l-0.057,0.078l-0.057,0.076l-0.059,0.076l-0.059,0.075l-0.06,0.074l-0.062,0.074l-0.062,0.073l-0.063,0.072l-0.063,0.071l-0.065,0.071l-0.065,0.07l-0.066,0.069l-0.067,0.068l-0.068,0.067l-0.069,0.067l-0.069,0.066l-0.07,0.065l-0.071,0.064l-0.072,0.063l-0.073,0.062l-0.073,0.062l-0.074,0.061l-0.074,0.06l-0.076,0.059l-0.076,0.058l-0.077,0.057l-0.077,0.056l-0.079,0.056l-0.079,0.054l-0.079,0.054l-0.081,0.052l-0.08,0.052l-0.082,0.051l-0.082,0.049l-0.083,0.049l-0.084,0.048l-0.084,0.047l-0.085,0.046l-0.085,0.045l-0.086,0.044l-0.087,0.042l-0.087,0.042l-0.088,0.041l-0.088,0.04l-0.089,0.039l-0.089,0.037l-0.09,0.037l-0.091,0.036l-0.091,0.034l-0.091,0.033l-0.092,0.033l-0.093,0.031l-0.093,0.03l-0.094,0.029l-0.094,0.028l-0.094,0.027l-0.095,0.025l-0.096,0.025l-0.096,0.023l-0.096,0.022l-0.097,0.021l-0.097,0.02l-0.098,0.019l-0.098,0.017l-0.098,0.017l-0.099,0.015l-0.1,0.014l-0.099,0.012l-0.1,0.012l-0.101,0.01l-0.101,0.009l-0.101,0.008l-0.101,0.006l-0.102,0.005l-0.102,0.004l-0.103,0.003l-0.102,0.001l-0.052,0l-16,0l-0.052,0l-0.102,-0.001l-0.103,-0.003l-0.102,-0.004l-0.102,-0.005l-0.101,-0.006l-0.101,-0.008l-0.101,-0.009l-0.101,-0.01l-0.1,-0.012l-0.099,-0.012l-0.1,-0.014l-0.099,-0.015l-0.098,-0.017l-0.098,-0.017l-0.098,-0.019l-0.097,-0.02l-0.097,-0.021l-0.096,-0.022l-0.096,-0.023l-0.096,-0.025l-0.095,-0.025l-0.094,-0.027l-0.094,-0.028l-0.094,-0.029l-0.093,-0.03l-0.093,-0.031l-0.092,-0.033l-0.091,-0.033l-0.091,-0.034l-0.091,-0.036l-0.09,-0.037l-0.089,-0.037l-0.089,-0.039l-0.088,-0.04l-0.088,-0.041l-0.087,-0.042l-0.087,-0.042l-0.086,-0.044l-0.085,-0.045l-0.085,-0.046l-0.084,-0.047l-0.084,-0.048l-0.083,-0.049l-0.082,-0.049l-0.082,-0.051l-0.08,-0.052l-0.081,-0.052l-0.079,-0.054l-0.079,-0.054l-0.079,-0.056l-0.077,-0.056l-0.077,-0.057l-0.076,-0.058l-0.076,-0.059l-0.074,-0.06l-0.074,-0.061l-0.073,-0.062l-0.073,-0.062l-0.072,-0.063l-0.071,-0.064l-0.07,-0.065l-0.069,-0.066l-0.069,-0.067l-0.068,-0.067l-0.067,-0.068l-0.066,-0.069l-0.065,-0.07l-0.065,-0.071l-0.063,-0.071l-0.063,-0.072l-0.062,-0.073l-0.062,-0.074l-0.06,-0.074l-0.059,-0.075l-0.059,-0.076l-0.057,-0.076l-0.057,-0.078l-0.056,-0.077l-0.055,-0.079l-0.054,-0.079l-0.053,-0.08l-0.052,-0.081l-0.051,-0.081l-0.051,-0.082l-0.049,-0.083l-0.048,-0.083l-0.048,-0.084l-0.046,-0.084l-0.045,-0.085l-0.045,-0.086l-0.043,-0.086l-0.042,-0.087l-0.042,-0.088l-0.04,-0.088l-0.039,-0.088l-0.039,-0.089l-0.037,-0.09l-0.036,-0.09l-0.035,-0.091l-0.034,-0.092l-0.033,-0.091l-0.032,-0.093l-0.03,-0.093l-0.03,-0.093l-0.028,-0.094l-0.028,-0.094l-0.026,-0.095l-0.025,-0.095l-0.024,-0.096l-0.023,-0.096l-0.021,-0.097l-0.021,-0.097l-0.019,-0.097l-0.018,-0.098l-0.017,-0.098l-0.015,-0.099l-0.015,-0.099l-0.013,-0.1l-0.012,-0.099l-0.011,-0.101l-0.01,-0.1l-0.008,-0.101l-0.007,-0.102l-0.006,-0.101l-0.004,-0.102l-0.003,-0.102l-0.002,-0.103l-0.001,-0.103l0,-16l8,-8l8,8l8,-8l8,8Zm-15.293,0.707l-0.084,0.075l-0.091,0.065l-0.098,0.054l-0.104,0.043l-0.107,0.031l-0.111,0.019l-0.112,0.006l-0.112,-0.006l-0.111,-0.019l-0.107,-0.031l-0.104,-0.043l-0.098,-0.054l-0.091,-0.065l-0.084,-0.075l-7.293,-7.293l-7,7l0,15.583l0.001,0.093l0.001,0.09l0.003,0.09l0.004,0.089l0.005,0.089l0.006,0.089l0.008,0.088l0.008,0.089l0.009,0.087l0.011,0.088l0.012,0.087l0.012,0.086l0.014,0.087l0.015,0.086l0.015,0.085l0.017,0.085l0.018,0.085l0.019,0.085l0.02,0.084l0.021,0.083l0.022,0.084l0.023,0.083l0.024,0.082l0.024,0.082l0.026,0.082l0.027,0.081l0.028,0.08l0.029,0.081l0.029,0.08l0.031,0.079l0.031,0.079l0.033,0.078l0.033,0.078l0.035,0.078l0.035,0.077l0.036,0.076l0.037,0.076l0.038,0.075l0.039,0.075l0.04,0.075l0.04,0.074l0.042,0.073l0.042,0.073l0.043,0.072l0.044,0.072l0.045,0.071l0.045,0.071l0.047,0.07l0.047,0.069l0.048,0.069l0.049,0.068l0.05,0.068l0.05,0.067l0.052,0.066l0.052,0.066l0.052,0.065l0.054,0.064l0.054,0.064l0.055,0.063l0.056,0.063l0.057,0.061l0.057,0.062l0.058,0.06l0.059,0.06l0.059,0.059l0.06,0.058l0.061,0.058l0.061,0.057l0.063,0.056l0.062,0.055l0.064,0.055l0.064,0.054l0.065,0.053l0.065,0.053l0.066,0.051l0.067,0.051l0.067,0.05l0.068,0.049l0.069,0.049l0.069,0.048l0.069,0.047l0.071,0.046l0.07,0.045l0.072,0.044l0.072,0.044l0.072,0.042l0.073,0.042l0.074,0.041l0.074,0.04l0.075,0.04l0.075,0.038l0.076,0.038l0.076,0.036l0.077,0.036l0.077,0.035l0.078,0.033l0.078,0.033l0.079,0.032l0.079,0.032l0.079,0.03l0.08,0.029l0.081,0.028l0.081,0.027l0.081,0.027l0.082,0.025l0.082,0.025l0.083,0.023l0.083,0.022l0.083,0.022l0.084,0.02l0.084,0.02l0.085,0.018l0.085,0.017l0.085,0.017l0.086,0.015l0.086,0.014l0.087,0.013l0.087,0.012l0.087,0.011l0.087,0.01l0.088,0.009l0.088,0.008l0.089,0.007l0.089,0.006l0.089,0.004l0.09,0.003l0.089,0.003l0.092,0.001l0.046,0l15.996,0l0.046,0l0.092,-0.001l0.089,-0.003l0.09,-0.003l0.089,-0.004l0.089,-0.006l0.089,-0.007l0.088,-0.008l0.088,-0.009l0.087,-0.01l0.087,-0.011l0.087,-0.012l0.087,-0.013l0.086,-0.014l0.086,-0.015l0.085,-0.017l0.085,-0.017l0.085,-0.018l0.084,-0.02l0.084,-0.02l0.083,-0.022l0.083,-0.022l0.083,-0.023l0.082,-0.025l0.082,-0.025l0.081,-0.027l0.081,-0.027l0.081,-0.028l0.08,-0.029l0.079,-0.03l0.079,-0.032l0.079,-0.032l0.078,-0.033l0.078,-0.033l0.077,-0.035l0.077,-0.036l0.076,-0.036l0.076,-0.038l0.075,-0.038l0.075,-0.04l0.074,-0.04l0.074,-0.041l0.073,-0.042l0.072,-0.042l0.072,-0.044l0.072,-0.044l0.07,-0.045l0.071,-0.046l0.069,-0.047l0.069,-0.048l0.069,-0.049l0.068,-0.049l0.067,-0.05l0.067,-0.051l0.066,-0.051l0.065,-0.053l0.065,-0.053l0.064,-0.054l0.064,-0.055l0.063,-0.055l0.062,-0.056l0.061,-0.057l0.061,-0.058l0.06,-0.058l0.059,-0.059l0.059,-0.06l0.058,-0.06l0.057,-0.062l0.057,-0.061l0.056,-0.063l0.055,-0.063l0.054,-0.064l0.054,-0.064l0.052,-0.065l0.052,-0.066l0.052,-0.066l0.05,-0.067l0.05,-0.068l0.049,-0.068l0.048,-0.069l0.047,-0.069l0.047,-0.07l0.045,-0.071l0.045,-0.071l0.044,-0.072l0.043,-0.072l0.042,-0.073l0.042,-0.073l0.04,-0.074l0.04,-0.075l0.039,-0.075l0.038,-0.075l0.037,-0.076l0.036,-0.076l0.035,-0.077l0.035,-0.078l0.033,-0.078l0.033,-0.078l0.031,-0.079l0.031,-0.08l0.029,-0.079l0.029,-0.081l0.028,-0.08l0.027,-0.081l0.026,-0.082l0.024,-0.082l0.024,-0.082l0.023,-0.083l0.022,-0.084l0.021,-0.083l0.02,-0.084l0.019,-0.085l0.018,-0.085l0.017,-0.085l0.015,-0.085l0.015,-0.086l0.014,-0.087l0.012,-0.086l0.012,-0.087l0.011,-0.088l0.009,-0.087l0.008,-0.089l0.008,-0.088l0.006,-0.089l0.005,-0.089l0.004,-0.089l0.003,-0.09l0.001,-0.09l0.001,-0.093l0,-15.583l-7,-7l-7.293,7.293Z" style="fill:#dedbf0;"/></g></svg>